<?xml version="1.0" encoding="UTF-8"?>
<svg viewBox="0 0 947 576" xmlns="http://www.w3.org/2000/svg">
 <path d="m492.25 25.656c-1.8532-0.06029-15.193 40.406-20.438 51.406-16.806 6.3488-77.589 11.456-92 20.719 19.719-6.3412 84.546-17.354 85.938-14.812 3.1597-0.6319 3.5008 0.21522 1.875 2.9375-1.5034 2.5173-4.4986 8.2568-8.6562 9.625-4.3539 2.6307-1.7835 7.5685 4.0938 7.875 6.1481 0.3207 7.9803-1.5173 3.75-3.7812-2.292-1.2266-1.5579-3.2372-0.5625-5 1.5623-2.7667 4.6242-9.0305 6.2188-12.25 77.423-5.726 155.85-7.4401 231.88 10.375 56.661 13.589 83.563 37.43 98.156 87.156 0.71514 0.4399 1.3125 2.1274 1.3125 3.75 0 1.8921 0.52011 2.9687 1.4375 2.9688 0.78675 0 1.6137 1.0125 1.8438 2.25 0.36072 1.9402 0.51817 1.8025 1.1875-1 0.75223-3.1494 2.564-2.8787 4.6875-2.25 12.348 3.6558 24.736 10.074 37.344 13.938 2.6024 0.43494 6.7006 0.81197 7.25 0.90625 0.02925 0.00502 0.2743 0.02798 0.28125 0.03125 0.45976 0.07577 1.0497 0.125 1.7812 0.125 1.7417 0 3.1875 0.44999 3.1875 1 0 0.628-6.9751 1.0388-18.75 1.0938-10.312 0.0482-21 0.41546-23.75 0.84375-3.0258 0.4713 7.7334 0.82544 27.25 0.90625 17.738 0.0735 40.38-0.41961 41.562 0.625 2.1651 1.9119 7.4041 20.829 6.25 31.312-0.41268 1.3002-1.8918 2.2255-4.1875 2.6562-1.9453 0.3649-4.1828 0.91716-4.9688 1.2188-1.1096 0.4257-1.4062-0.4686-1.4062-4 0-2.5013-0.44999-4.8163-1-5.1562-0.61008-0.377-0.99999 1.1296-1 3.875 0 2.475 0.45001 4.7851 1 5.125 1.7453 1.0787 1.0839 2.4452-1.5 3.0938-1.4514 0.3643-2.4834 1.297-2.4375 2.25 0.04989 1.0375 0.275 1.1962 0.59375 0.40625 0.60618-1.5022 3.3438-1.6812 3.3438-0.21875 0 0.5673-0.67499 1.2771-1.5 1.5938-1.6598 0.6369-2.0868 4.375-0.5 4.375 1.1466 0 1.3895 3.9463 0.25 4.0625-3.6244 0.4934-10.003 8.6842-10.188 2.0938-0.22446-8.0326-0.20523-22.156-1.5625-22.156-2.6152 3.4705 2.796 8.074-5.5 9.9062-13.692 3.024-27.528 4.8797-42 8.0938-1.9509 0.43329-10 1.997-10 0.40625 0-5.2356-2.3612-25.991-3-26.406-0.42356-0.275-1.0681-2.32-1.4375-4.5312-0.78174-4.6799-2.1465-7.2598-3.25-6.1562-0.42647 0.4264-0.2578 1.0862 0.34375 1.4688 1.2254 0.7793 3.3438 9.7842 3.3438 14.188 0 1.5771 0.37142 3.0042 0.84375 3.1875s1.1823 4.6514 1.5625 9.9375c0.76085 10.578 1.3931 9.1547-9.4375 11.469-19.921 4.2563-50.074 10.693-71.531 12.531-4.1072 0.35178-6.2084 0.67389-6.6875-4.3125-0.27522-2.8642-1.0052-5.3872-1.625-5.5938s-1.125-1.6565-1.125-3.2188c0-4.0375-2.2019-12.969-3.1875-12.969-0.45554 0-0.81249-1.575-0.8125-3.5 0-1.925-0.44999-3.5-1-3.5s-0.99999-0.67369-1-1.5c0-2.2782-7.1159-8.5-9.7188-8.5-1.2604 0-2.2812-0.45001-2.2812-1 0-1.6833-6.1823-1.1458-7.5 0.65625-0.84697 1.1583-3.2127 1.8394-7.5938 2.1562-5.3927 0.3901-8.9062 1.7578-8.9062 3.4688 0 0.2381 1.2375 0.27299 2.75 0.0625 2.4702-0.3438 2.5229-0.29201 0.59375 0.5625-3.1081 1.3767-3.6993 2.8741-1.0938 2.7812 1.2339-0.044 5.9684 0.28194 10.531 0.71875 8.2962 0.7944 8.3154 0.7957 7.6875-2.0625-0.47556-2.1646-0.08343-1.7736 1.6875 1.625 1.2861 2.4682 3.0455 4.6467 3.9062 4.8125 2.0774 0.4001 4.1957-4.1167 2.6562-5.6562-0.60831-0.6083-0.81838-1.4004-0.46875-1.75s1.333 0.083 2.1875 0.9375 2.4022 1.8063 3.4062 2.125c1.7525 0.5562 4.1563 7.8648 4.1562 12.625 0 1.0581 0.40003 1.9375 0.90625 1.9375 0.94064 0 2.4101 10.306 2.5 17.5 0.04883 3.9084-0.06448 3.7617-3.6875 4.3125-34.806 5.2914-68.601 16.928-103.38 22.469-5.576 0.88846-6.3437-0.35395-6.3438-8.3438 0-1.5354-0.43072-2.9416-0.9375-3.125-1.5073-7.2726-3.8798-14.258-6.1875-21.375-2.2059-6.8566-6.5097-13.58-11.5-18.812-4.6316-4.6316-4.6316-4.625 9.5-4.625 36.038-3.3306 71.479-11.282 107.12-17 21.142-5.9264 67.75-12.914 89.031-14.094 4.4623-0.2473 4.739 4.4974 6.9688 5.7812 0 0.7213 0.45001 1.3125 1 1.3125 1.6147 0 1.153-1.847-1-4-3.2286-3.2286-2.4274-4 4.25-4 6.2727 0 6.2812-1e-5 6.2812-4 0-4.4438-1.5466-5.2484-3.8438-1.9688-2.841 4.056-8.6875 3.8234-8.6875-0.34375 0-1.9572-1.0526-7.5228-2.3438-12.375-7.057-25.332-17.246-61.404-45.281-71.281-22.23-2.2199-43.322-3.0636-67.344-1-17.255 1.3392-34.409 3.1698-51.688 4.125-15.886 1.241-64.162-0.27721-65.312-2.0625-0.62623-0.9719-17.672-3.0938-24.875-3.0938-2.7479 0-5.1604-0.41866-5.3438-0.90625s-9.0875-1.4451-19.812-2.1562-19.725-1.6107-20-2-9.5-1.2843-20.5-1.9688-20.282-1.6846-20.625-2.2188c-0.38464-0.5997-17.119-1.0344-43.75-1.125-23.718-0.0807-43.123-0.46251-43.125-0.875s1.125-0.75001 2.5-0.75c1.375 0 2.5-0.42791 2.5-0.9375s0.78751-1.151 1.75-1.4375c0.48125-0.1433 0.42537-0.22727-0.0625-0.21875s-1.4035 0.09379-2.625 0.25c-2.4429 0.3123-5.0849 1.2099-5.8438 1.9688s-1.8018 1.375-2.3125 1.375-0.90624 1.125-0.90625 2.5-0.41509 2.5-0.90625 2.5-1.1522 0.67499-1.4688 1.5c-0.39152 1.0203 0.06721 1.5 1.4062 1.5 1.2516 0 1.9688-0.694 1.9688-1.875 0-3.9132 104.45-4.096 106.97-0.1875 0.28295 0.4388 10.431 1.3809 22.531 2.0938s22.225 1.6103 22.5 2c0.275 0.3898 9.05 1.281 19.5 1.9688s19.225 1.5898 19.5 2c0.47626 0.7104 4.3948 1.1985 20.75 2.625 3.9875 0.3478 7.25 1.0224 7.25 1.5s2.3625 0.87171 5.25 0.875c12.389 0.0142 21.654 1.221 20.25 2.625-6.0093 22.392-24.609 73.358-35.656 102.38-1.4422 0-0.93006 3.759 0.59375 4.3438 1.0774 0.4135 1.6282-0.59315 2.125-3.9062 9.5682-28.629 26.243-70.37 34.469-100.47 1.0854-0.7823 1.9688-1.9253 1.9688-2.5625 15.308-4.107 51.254-4.9536 69.156-6.4375 3.8412 0.85451 10.639 60.706 17.375 90.562 0.38109 3.0501 0.87417 5.3758 1.0938 5.1562-3.8532-31.742-15.81-95.45-14.281-96.188 16.039-2.6889 44.406-2.554 64.594 0.84375 5.4211 0.91241 15.062 7.6527 18.969 13.125 9.8966 13.864 17.83 29.598 21.906 46.812 6.5442 22.907 6.3992 25.719 0.6875 25.719-2.475 0-4.5 0.34125-4.5 0.78125-34.225 4.9697-58.858 7.4512-84.969 14.062-33.291 5.2083-68.519 15.004-103.62 16.656-6.0104 0.2932-12.951 0.76694-15.438 1.0312-3.1657 0.3364-5.2087-0.00159-6.8125-1.125-13.08-6.4585-67.802-9.5663-75.156-19.469 0-1.0629-0.44999-1.9375-1-1.9375s-0.99999 0.44999-1 1-0.67499 0.99999-1.5 1c-0.825 0-1.5-0.847-1.5-1.875 0-1.7641-6.5492-3.9196-7.875-2.5938-0.25804 0.258 0.27084 0.46874 1.1875 0.46875s1.6875 0.44999 1.6875 1 0.90001 0.99999 2 1 2 0.4755 2 1.0625-0.78749 0.8335-1.75 0.5625c-6.6871-1.8828-8.25-1.8274-8.25 0.28125 0 1.7335 0.62382 2.081 3.75 2.0938 2.0625 0.0085 4.425 0.46689 5.25 1 1 0.6463 1.0833 0.95856 0.25 0.96875-0.6875 0.0084-1.25 0.70624-1.25 1.5312 0 2.3592 1.933 1.7535 3.1875-1 1.3707-3.0083 3.4401-3.2486 4.3125-0.5 0.69829 2.2001 2.4757 2.7347 2.5 0.75 0.01166-0.9519 0.20277-0.9725 0.78125-0.0625 23.24 8.5958 48.552 9.6495 72.219 17.062 0 0.5386-3.4875 1.5344-7.75 2.2188-8.4403 1.3551-22.923 5.6858-23.812 7.125-0.30541 0.4941-1.6574 0.90624-3 0.90625s-2.4375 0.44999-2.4375 1-1.381 0.99999-3.0625 1c-3.9468 0-11.937 2.0074-11.938 3 0 0.4214-2.5875 1.0665-5.75 1.4375-9.5168 1.1166-13.461 3.5625-5.75 3.5625 1.925 0 3.5-0.39084 3.5-0.84375s3.6-1.412 8-2.1562 8-1.6581 8-2.0312 4.05-1.2593 9-1.9688 9-1.5702 9-1.9062c0-1.4037 18.904-7.2112 27.688-8.5 6.644-1.4614 7.5856 3.2023 10.719 7 4.885 5.9212 9.0092 13.864 10.656 21.406 9.6736 37.495 7.4276 93.878 1.9375 133.81-0.55995 0.1867-0.99999 2.461-1 5.0312s-0.4259 6.1224-0.9375 7.9062c-0.79636 2.7767-0.68583 3.25 0.8125 3.25 1.9 0 4.1371-14.185 4.125-26.188-0.00366-3.6486 0.44517-5.794 1.25-6.0625 0.97544-0.3254 2.0544-10.128 2.0312-44.594-0.02959-44.166-0.79415-44.631 1.9375-45.125 33.1-5.9859 65.602-16.47 97.781-21.031 11.291-1.6006 12.019 0.08865 12.188 14.188 0.21825 18.253-1.0978 56.104-2.1875 56.812-0.42319 0.275-1.0967 5.5837-1.5 11.812-0.53129 8.2055-1.121 11.49-2.125 11.875-2.1144 0.8114-1.6396 3.3125 0.625 3.3125 1.7538 0 2-0.6875 2-5.4375 0-2.9791 0.41958-5.5666 0.9375-5.75s1.4822-9.875 2.1562-21.562c1.3169-14.32 2.813-28.295 2.9062-42.688 0-23.584 0.55619-25.187 3.9688-25.719 27.787-4.3278 54.154-11.767 83.719-14.5 4.1429-0.38303 1.003 31.665-2.3125 31.75-19.637 0.00906-40.781 7.4356-48.438 17.25s-5.2261 24.425-0.75 32.156c3.1738 5.4821 6.2353 13.3 1.8125 18.406-4.084 4.7154-32.591 15.555-40.375 16.875-5.5476 0.94069-5.625 0.46766-5.625 4.3438 0 2.7198-0.45109 3.875-1.4688 3.875-0.79767 0-1.8702 0.76085-2.4062 1.7188s-1.3364 1.4136-1.75 1 0.05668-1.3186 1.0312-2.0312c1.0851-0.7935 1.6488-2.2534 1.4375-3.75-0.34497-2.444-0.34374-2.4375-2.5938-0.1875-33.909 16.424-70.176 26.399-105.25 39.75-1.6557 0.3636-3 0.95745-3 1.3438-2.6499 1.636-26.335 13.504-25.125 7.7188 2.3706-11.334-4.5379-50.999-13.219-62.031-9.0042-11.444-13.211-14.577-30.156-14.531-20.665 0.05622-42.857 7.5466-60.719 18-1.4416 0.84371-9.4821 4.6284-14.781 15.438s-7.0034 41.247-18.312 49c-11.665 7.9968-24.392 4.802-30.188 5.1562-3.85 0.2353-13.75 0.93184-22 1.5312-18.162 1.3196-28.254 1.283-31.875-0.09375-1.4914-0.5671-5.2967-1.2665-8.4375-1.5625-9.2952-0.8759-10.397-1.2649-9.6875-3.5 0.43945-1.3846 0.16595-1.9688-0.9375-1.9688-0.86207 0-1.5625-0.45-1.5625-1s0.45001-1 1-1 1-0.9 1-2-0.56249-2.0228-1.25-2.0312c-0.86475-0.0106-0.91726-0.24169-0.15625-0.75 0.60503-0.4041 1.3422-1.3938 1.6562-2.2188 0.45482-1.1948 0.59338-1.1439 0.65625 0.25 0.05254 1.1646 0.88381 1.75 2.5 1.75 1.3357 0 3.0761 0.6074 3.8438 1.375 1.5821 1.5821 13.131 3.625 20.594 3.625 3.0593 0 5.1531 0.45915 5.4062 1.2188 0.54579 1.6373 27.984 1.5177 28.531-0.125 0.20101-0.603 2.3346-1.0938 4.7188-1.0938 5.6228 0 7.5-0.7952 7.5-3.125 0-1.0411 0.41241-1.875 0.9375-1.875s1.2624-1.5984 1.625-3.5312 1.2219-3.8452 1.9062-4.25c1.9887-1.1762 3.7841-10.389 2.625-13.438-0.99167-2.6083-0.99626-2.5917-23.125-2.0312-21.358 0.5409-41.969-0.79435-41.969-2.7188 0-0.412-3.0375-1.0598-6.75-1.4375s-7.7625-0.94219-9-1.25c-1.9776-0.4919-2.25-0.19016-2.25 2.5938 0 1.857-0.41372 2.9249-1 2.5625-0.55-0.3399-0.99999 0.0139-1 0.8125 0 1.2098-1.9684 2.6875-3.5938 2.6875-0.23001 0-0.40624-1.1083-0.40625-2.4375s-0.47252-2.5638-1.0312-2.75c-1.0886-0.3629-2.9752-14.389-2.9375-21.812 0.01975-3.8954 0.18782-4.2313 1.1875-2.5 0.63515 1.1 1.8302 2.675 2.6562 3.5 1.3356 1.334 1.2551 1.5096-0.59375 1.7812-3.4068 0.5004-1.7538 4.2188 1.875 4.2188 2.4534 0 2.7074 0.22985 1.625 1.4062-0.70919 0.7708-1.4417 0.9958-1.625 0.5-0.55539-1.502-3.1562-1.0132-3.1562 0.59375 0 0.825 0.45001 1.5 1 1.5s1 1.575 1 3.5c0 6.4927 3.6707 0.93139 4.5-6.8125 0.61861-5.7765 0.95971-6.5668 3.0625-6.9688 1.3-0.2486 2.1614-0.1004 1.9062 0.3125s0.19578 1.0038 1 1.3125 1.7374 0.11975 2.0625-0.40625 1.3097-0.9375 2.1875-0.9375c1.4398 0 1.4305 0.16271-0.0625 1.8125-2.5589 2.8275-1.975 3.81 0.75 1.25 1.3343-1.2535 2.9093-1.9901 3.5-1.625 0.59072 0.365 1.0938 0.27204 1.0938-0.21875s0.6337-0.90625 1.4062-0.90625c0.85499 0 1.1728 0.6235 0.8125 1.5625-0.46322 1.2071 0.17223 1.0691 2.9375-0.5625 2.4031-1.4178 4.0459-1.7914 5.125-1.1875 0.95701 0.5356 1.8264 0.49045 2.1875-0.09375 0.32928-0.5328 1.2011-0.72009 1.9375-0.4375s1.6088-0.17464 1.9375-1.0312 1.431-1.5625 2.4688-1.5625c1.2708 0 2.1847-1.061 2.8125-3.25 0.51265-1.7875 1.6018-3.2473 2.4062-3.25 1.0055-0.0034 1.3461-0.8628 1.125-2.75-0.21316-1.8197 0.14998-2.75 1.0625-2.75 0.93437 0 1.8008-2.4092 2.6562-7.5 0.69312-4.125 1.7221-7.5 2.3125-7.5 1.9315 0 0.29661-16.878-2.1875-22.5-4.2849-11.869-11.209-18.631-22.062-23-12.547-5.0512-28.422 3.6316-33.938 13.938-0.74754 1.3968-1.6677 2.5625-2.0625 2.5625s-1.2701 2.9002-1.9375 6.4375-1.7978 6.656-2.5312 6.9375c-0.83575 0.3207-1.5955 3.14-2.0312 7.5625-0.38245 3.8813-1.0546 7.0625-1.4688 7.0625s-10.342-1.7963-22.094-3.9688-22.725-4.085-24.375-4.25-3.225-0.57546-3.5-0.90625c-0.41534-0.4997-9.7177-2.0319-26.5-4.4062-1.65-0.2334-7.5-1.3205-13-2.4062-17.647-3.4832-43.54-7.2874-46.562-6.8438-1.6126 0.2367-2.9375 0.04855-2.9375-0.40625s-1.3333-0.81251-2.9375-0.8125-3.0667-0.4047-3.25-0.875c-0.2847-0.7302-17.579-3.4708-28.812-4.5625-7.8296-0.7609-23.675-2.6798-26.25-3.1875-2.3921-0.4716-2.75-1.0158-2.75-4.1562 11.697-51.11 76.258-72.591 121.72-85.406 2.615-0.2169 3.862-0.83941 4.0938-2.0625 0.41383-2.1837-2.379-2.3397-4.4688-0.25-41.858 15.078-106.68 29.42-121.34 77.844 0 1.3606-0.40965 2.6291-0.90625 2.8125-4.2513 1.5695-2.4638 12.836 2.0625 13 6.4216 0.2323 8.6418 0.51779 19.844 2.375 29.738 4.9303 72.867 11.712 88.75 13.969 10.05 1.428 21.525 3.2597 25.5 4.0625s9.95 1.9127 13.25 2.4688 10.5 1.8748 16 2.9375 15.175 2.6369 21.5 3.5c16.795 2.2918 16.158 2.0788 14.812 5.0312-0.62342 1.3682-1.4508 2.5-1.8438 2.5s-0.98198 1.2375-1.3125 2.75-0.8976 3.7625-1.25 5c-0.5201 1.8265-0.24946 2.25 1.4688 2.25 1.1642 0 2.125 0.47964 2.125 1.0938 0 0.7139-0.99172 0.89726-2.75 0.46875-7.1241-1.7364-10.854-0.47685-11.688 3.9688-0.36752 1.959-1.3304 3.82-2.125 4.125-1.888 0.7245-1.8679 2.3438 0.03125 2.3438 0.81452 0 1.7799 1.125 2.125 2.5s1.0096 2.5 1.5 2.5 0.90626 0.675 0.90625 1.5c0 2.2169-2.763 1.8222-3.5-0.5-0.34913-1.1-1.0211-2-1.4688-2-3.7462 0-2.7134-13.344 1.125-14.562 2.4806-0.7873 2.359-3.4375-0.15625-3.4375-2.863 0-5.7875 3.3064-6.5625 7.4375-1.013 5.3999-4.971 5.2185-4.0938-0.1875 0.334-2.0582 1.0191-3.8918 1.5312-4.0625 3.918-1.3061 5.3436-4.1875 2.0625-4.1875-4.1703 0-7.9166 3.9118-8.0312 8.4062-0.04342 1.7019-0.28509 2.5312-0.5625 1.8438-0.6802-1.6857-2.3437-1.5995-2.3438 0.125 0 0.7608 0.90001 1.6186 2 1.9062 1.1966 0.3129 2 1.3724 2 2.625 0 1.1515 0.43994 2.0938 0.96875 2.0938s1.4389 1.8 2.0312 4 1.4176 4 1.8438 4 1.401 1.575 2.1562 3.5 1.7283 3.5 2.1562 3.5 1.2861 1.0125 1.9375 2.25c0.66177 1.2572-0.80017 0.2644-3.3125-2.25-2.473-2.475-4.785-5.7618-5.1562-7.2812s-2.0458-4.0574-3.7188-5.6562c-5.6953-5.4427-4.3535-19.062 1.875-19.062 0.66999 0 1.2188-0.52945 1.2188-1.1562 0-2.0069-3.3875-3.7797-7.25-3.8125-2.0625-0.0175-3.75-0.48125-3.75-1.0312s-0.67499-1-1.5-1c-1.8013 0-2.0395 1.9656-0.25 2.0625 0.6875 0.0372 0.23751 0.55945-1 1.1562s-2.25 1.9216-2.25 2.9375-0.37612 1.8438-0.8125 1.8438c-2.6856 0-2.8392 10.026-0.1875 12 1.0013 0.7454 3.0772 7.2353 2.5 7.8125-0.80412 0.8041-5.4986-5.1737-5.5-7-6.7e-4 -0.9166-0.4937-1.8313-1.0938-2.0312-1.5021-0.5007-1.7301-11.005-0.25-11.5 2.3558-0.7883 6.8737-5.28 5.3125-5.2812-0.84108-6e-4 -2.1759-0.9-2.9688-2-1.8412-2.5544-3-2.5628-3 0 0 2.1273-1.8817 6.0342-3.4375 7.1562-1.305 0.9413-1.3058 10.761 0 11.625 0.59406 0.393 1.7223 2.1812 2.5 3.9688s1.7718 3.25 2.1875 3.25 0.75001 0.87345 0.75 1.9688 0.90001 2.563 2 3.25 2 1.7235 2 2.3125 0.90982 2.0774 2.0312 3.2812 1.5833 2.1875 1.0312 2.1875-2.0243-1.156-3.2812-2.5625-3.223-3.5439-4.375-4.75-2.4067-3.4423-2.7812-4.9688-1.5702-3.664-2.6562-4.75-1.9688-3.0938-1.9688-4.4688-0.45-2.5-1-2.5c-2.4034 0-0.9875-7.0796 2-10 3.4272-3.3502 3.8915-6 1.0625-6-2.4269 0-4.8949 2.4045-5.6875 5.5625-0.33545 1.3366-0.95658 2.4375-1.375 2.4375-1.9513 0-1.9215 7.3994 0.03125 9.2188 1.0836 1.0095 1.9688 2.7478 1.9688 3.8438s0.675 2.2459 1.5 2.5625 1.5 1.6526 1.5 2.9688c0 1.4585 1.562 3.9684 4 6.4062 2.2 2.2 4 4.402 4 4.9062s0.56251 1.1294 1.25 1.375 0.99722 0.72331 0.6875 1.0625c-0.65916 0.7219-7.9375-5.9272-7.9375-7.25 0-0.4935-1.1345-1.9548-2.5-3.25s-2.481-3.0188-2.5-3.8438-1.1657-2.5798-2.5312-3.875-2.4688-3.4328-2.4688-4.75-0.45-2.375-1-2.375-1-1.5792-1-3.5c0-3.5671 3.2297-8.5 5.5625-8.5 1.7642 0 2.3312-3.3626 0.8125-4.7812-1.7072-1.5947-7.0716-1.5724-7.7188 0.03125-0.30132 0.7468-0.54659 0.5455-0.59375-0.5-0.09758-2.1629-4.0625-2.4069-4.0625-0.25 0 0.825-0.45 1.5-1 1.5s-1 0.86999-1 1.9375-0.45 2.2226-1 2.5625-1 1.72-1 3.0625-0.45 2.4375-1 2.4375c-1.8761 0-1.0669 5.4593 1 6.75 1.1 0.687 2 1.9529 2 2.8125s0.675 2.2375 1.5 3.0625c1.8939 1.8939 1.9184 3.375 0.0625 3.375-0.78794 0-1.7132-0.89951-2.0625-2s-1.4612-2.4608-2.4688-3c-4.0062-2.1441-3.4788-19 0.59375-19 2.2385 0 1.6845-4.7086-0.625-5.3125-1.1-0.2877-2-0.09225-2 0.40625s-0.9 0.90625-2 0.90625-2-0.5031-2-1.125c0-0.7339-1.2297-0.96215-3.5-0.59375-2.7949 0.4535-3.7031 0.20365-4.5312-1.3438-1.2243-2.2876-3.9688-2.5902-3.9688-0.4375 0 0.825-0.675 1.5-1.5 1.5s-1.5-0.675-1.5-1.5c0-0.8333-0.88889-1.5-2-1.5s-2 0.6667-2 1.5c0 2.073-0.93039 1.8742-3.125-0.65625-1.8673-2.153-1.875-2.1498-3.875 0.15625s-2 2.3092-2 0.15625c0-1.6299-0.60744-2.1562-2.5-2.1562-1.375 0-2.5 0.45-2.5 1 0 1.8336-2.188 1.0294-2.7188-1-0.60477-2.3126-3.9894-2.7162-4.4688-0.53125-0.23279 1.061-0.73251 1.201-1.8125 0.5-1.3333-0.8655-1.3333-1.0934 0-1.9688 1.2789-0.8395 1.2376-0.9869-0.28125-1-0.97977-0.0084-2.0584 0.675-2.375 1.5-0.74844 1.9504-2.3438 1.9252-2.3438-0.03125 0-1.1438-0.66155-1.3444-2.6562-0.84375-1.9106 0.4795-2.4348 0.32406-1.9062-0.53125 0.52686-0.8525-0.00957-0.99946-1.875-0.53125-2.1155 0.5309-2.4728 0.34474-1.9688-0.96875 0.85971-2.2404-2.4965-2.1126-4.2188 0.15625-1.2302 1.6205-1.3143 1.5835-1.3438-0.5-0.01864-1.3192-0.65178-2.25-1.5312-2.25-0.825 0-1.5 0.67499-1.5 1.5 0 0.825-0.675 1.5-1.5 1.5-1.8149 0-1.9965-1.6575-0.25-2.2812 0.6875-0.2456 0.87501-0.84549 0.4375-1.3125s-1.7263-0.24854-2.875 0.46875c-1.6032 1.0013-2.2454 1.0114-2.8125 0.09375s-1.2497-0.91999-2.9688 0c-2.0166 1.0792-2.1634 0.98695-1.5625-0.90625 0.74804-2.3568-2.878-3.1284-3.8125-0.8125-0.30905 0.7659-0.54538 0.57305-0.59375-0.46875-0.0614-1.3224-1.3962-1.8471-6.0625-2.375-3.3-0.3733-6-1.0522-6-1.5312 0-1.6525-3.8563-0.87061-4.3125 0.875-0.34415 1.3169-0.50646 1.1932-0.59375-0.5-0.12118-2.3505-0.90882-2.511-15.031-2.7188-1.8783-0.0277-3.5824-0.59376-3.8125-1.2812-0.49465-1.4782-5.25-1.7046-5.25-0.25 0 0.55-0.675 0.99999-1.5 1-1.6973 0-1.8785-0.87744-0.59375-2.9062 0.63086-0.9962 2.1734-1.2465 5.4688-0.875 6.8011 0.7666 6.1388-1.7691-0.84375-3.2188-9.4797-1.968-12.876-1.172-13.969 3.25-0.5095 2.0625-1.297 3.75-1.75 3.75-1.3819 0-0.92534 9.0434 0.53125 10.5 0.74931 0.7493 1.6616 3.6511 2.0312 6.4375s1.0669 5.0625 1.5312 5.0625 1.4103 1.35 2.0938 3c1.3232 3.1946 2.4716 3.785 3.4062 1.75 0.31575-0.6875 0.29759-0.1813-0.03125 1.125-0.40226 1.5981-0.24486 2.1479 0.5 1.6875 1.6508-1.0203 1.3464 2.0036-0.34375 3.4062-2.1157 1.7559-3.2663 0.55615-4.0625-4.1562-1.0553-6.2464-2.7948-7.4674-11.719-8.2812-4.2625-0.3887-7.75-1.0991-7.75-1.5625s-2.4512-1.1269-5.4375-1.5c-9.0411-1.1297-9.1023-17.64-0.0625-16.812 5.1468 0.471 6.3449 0.24549 8.4062-1.5625 1.3217-1.1592 2.7842-2.0938 3.25-2.0938s0.84375-1.0949 0.84375-2.4375 0.44103-2.7483 1-3.0938 0.79554-1.0218 0.5-1.5 0.14111-1.2381 1-1.7188c1.5872-0.8883 1.1221-4.25-0.59375-4.25-0.48499 0-0.87627-1.0125-0.875-2.25 0.00937-9.088-3.0584-12.686-4.125-4.8438-0.31819 2.3395-1.0555 4.5663-1.6562 4.9375s-1.403 1.8993-1.7812 3.4062-1.3284 2.75-2.0938 2.75-1.375 0.44999-1.375 1-0.9 0.99999-2 1-2 0.44999-2 1-0.9 0.99999-2 1-2-0.45001-2-1 0.57083-1 1.2812-1c2.8079 0 10.719-9.2259 10.719-12.5 0-0.8325 0.45-1.5 1-1.5s1-1.575 1-3.5c0-3.6585-1.5108-4.7662-2.375-1.75-0.27579 0.9625-0.25101 0.11071 0.03125-1.875 0.38433-2.7038 0.09333-3.7632-1.0938-4.2188-0.8718-0.3345-1.5884-1.3952-1.5938-2.375-0.01635-2.9809-4.547-11.649-7.3438-14.031-1.4486-1.2338-2.625-2.6963-2.625-3.25s-0.58855-1-1.2812-1-1.813-0.90001-2.5-2-1.9297-2-2.75-2-1.4688-0.45001-1.4688-1-1.6838-1-3.7188-1c-4.2802 0-3.7088-1.023 2.2188-3.9062 2.8194-1.3714 4.483-1.6468 5.75-0.96875 0.93641 0.50116 1.7812 0.61051 2.4375 0.40625 11.615 4.1865 20.352 16.492 21.594 32.562-0.07137 0.98448-0.00902 9.8638 2.4062 5.4062 0.84893-6.5379-1.8743-12.82-3.125-19.125-3.5592-8.5307-9.2147-19.852-19.562-20.875 3.9e-4 -0.02185 0-0.04035 0-0.0625 0-0.7925 0.675-1.4937 1.5-1.5625s1.95-0.23751 2.5-0.375 1.45-0.30621 2-0.375c1.2535-0.1567 1.3118-3.125 0.0625-3.125-0.50417 0-1.0982 0.56249-1.3438 1.25s-0.83012 0.89034-1.2812 0.46875c39.895-10.474 80.596-18.398 121.06-26.625 15.36-5.1764 32.037-5.6778 47.5-10.062 0.275-0.3739 4.7601-1.227 9.9688-1.9062 1.1275-0.14705 2.1931-0.30798 3.2188-0.46875-0.4936 1.426-1.3499 1.8741-3.625 2.625-1.9683 0.64957-3.5625 1.7359-3.5625 2.4375 0 1.2921 9.747 0.78596 10.844-0.5625 0.86889-1.0682 4.488-2.8125 5.8438-2.8125 0.75217 0 1.375-0.59832 1.375-1.3438 0-1.9992-5.9462-1.8211-7.25 0.21875-0.86257 1.3496-0.92813 1.2405-0.5-0.6875 0.02746-0.12365 0.03549-0.29588 0.0625-0.4375 2.0277-0.3924 3.438-0.74494 3.5938-0.96875 0.2913-0.4185 3.1188-1.3506 6.2812-2.0938s5.75-1.67 5.75-2.0312 2.925-1.2269 6.5-1.9375c3.575-0.7106 6.5-1.6166 6.5-2.0312s2.5875-1.0947 5.75-1.5 7.0371-0.9065 8.625-1.125 3.4385-1.1352 4.0938-2.0312c0.85644-1.1713 3.1346-1.7182 8.0938-1.9375 3.7941-0.1679 7.054-0.787 7.25-1.375s1.422-1.0625 2.7188-1.0625 2.6455-0.53204 3.0312-1.1562c0.50793-0.8218-0.6081-0.92425-4.0625-0.40625-6.0182 0.9025-7.5121 1.4743-7.5312 2.9062-0.0089 0.6644-0.38724 0.56991-0.90625-0.25-0.89892-1.42 0.4289-4.868 2.4375-6.3438 0.55-0.404 3.8125-0.7415 7.25-0.75 3.4898-0.0085 6.25-0.44161 6.25-1s2.8333-1 6.5-1c3.575 0 6.4991-0.33751 6.5-0.75s-6.1866-0.47779-13.75-0.125-15.212 0.69031-17 0.75c-2.2526 0.0752-3.25 0.59011-3.25 1.6875 0 2.0058-2.3994 1.3167-2.8125-0.8125-0.1935-0.9974 0.55186-1.7545 2-2.0312 1.5358-0.2934 1.0644-0.50316-1.375-0.59375-2.0167-0.0749-3.8788-0.68751-4.1562-1.375-0.30906-0.7659-0.54537-0.6043-0.59375 0.4375-0.04342 0.9352 0.67708 2.112 1.5938 2.625 1.1802 0.6605 1.6562 2.293 1.6562 5.5625 0 5.4638-0.95453 6.8567-2.9062 4.1875-1.2246-1.6748-1.4062-1.7314-1.4062-0.28125 0 1.1859-1.1752 1.8608-4 2.3125-2.2 0.3518-4 1.0075-4 1.4375s-3.15 1.3193-7 1.9688c-3.9429 0.6651-7.0226 1.6905-7.0312 2.3438s-0.42274 0.50114-0.96875-0.34375c-0.60976-0.9435-0.99037-1.0458-1-0.28125-0.00877 0.69685-2.1075 1.4838-5 1.875 5.0682-1.3481 7.7711-4.5932 8.25-9.875-0.37947-9.8049-35.486-8.3601-26.5 0.9375 2.3827 5.2091 4.1875 6.6511 4.1875 3.3438-0.36548-2.4968-3.4501-4.4406-3.2188-7.5 1.5514-1.9087 20.521-3.5354 21.312 1.5 0.22087 12.794-13.958 6.7099-11.312 4.75 1.4531-0.55758 1.8832-4.1875 0.5-4.1875-3.2695 0.392-5.151 4.2139-6.4375 7-0.60026 1.8636-1.3805 3.8156-1.75 4.3125-0.35424 0.47644-0.91455 2.5919-1.25 4.7812-1.1993 0.20359-2.2994 0.34375-3.1562 0.34375-1.3606 0-2.6257 0.4396-2.8125 1s-4.591 1.5444-9.8125 2.1562c-15.58 3.3015-31.621 5.3362-47 9.8125-39.95 8.2044-80.336 14.639-120 24.031-0.275 0.3438-1.2677 0.91131-2.1875 1.25-0.99682 0.3671-1.4845 1.3579-1.2188 2.4375 0.35367 1.4365-1.1425 2.5366-7.25 5.3125-8.6827 3.9465-11.882 6.1588-13.406 9.3125-1.0451 2.162-1.0512 2.1779 0.78125 0.1875 1.0127-1.1 2.4939-2.1666 3.2812-2.3438s-0.23726 1.2598-2.2812 3.1875c-3.9325 3.7089-4.504 5.1127-2.4688 6.0625 1 0.4666 1 0.68965 0 1.1562-1.5661 0.7309-1.8086 24.437-0.25 24.438 0.55 0 1 1.0883 1 2.4375 0 2.8803 1.95 7.5625 3.1562 7.5625 0.46172 0 0.84375 0.69831 0.84375 1.5625 0 1.796 2.313 4.4375 3.9062 4.4375 0.58929 0 1.0938 0.39529 1.0938 0.875s1.8 1.1482 4 1.5c2.5164 0.4024 4 1.1576 4 2.0625 0 0.7912 0.73467 1.8767 1.625 2.375 1.9921 1.1148 2.4332 30.314 0.46875 30.969-0.60719 0.2024-1.0938 1.8444-1.0938 3.6562s-0.6961 3.8694-1.5312 4.5625-2.2091 2.7328-3.0625 4.5312c-0.92569 1.9508-2.8218 3.7956-4.7188 4.5625-1.7489 0.707-3.4125 1.5688-3.6875 1.9062-0.275 0.3375-1.9625 1.1832-3.75 1.9062s-3.25 1.8755-3.25 2.5625-2.925 4.175-6.5 7.75c-7.7181 7.7181-9.1576 14.733-4 19.625 1.3655 1.2952 2.5 2.9827 2.5 3.75s0.5625 1.4308 1.25 1.4688c5.9201 0.3263 14.142 1.9848 14.75 2.9688 0.28887 0.4674 3.4169 1.308 6.9375 1.875s6.6519 1.4294 6.9688 1.9062 3.4791 1.4114 7 2.0938c6.551 1.2697 9.0938 2.7965 9.0938 5.4375 0 0.8423 1.6357 2.0294 3.75 2.7188 2.0625 0.6723 3.9686 1.5718 4.25 2 1.1651 1.7727 13.078 2.313 12.406 0.5625-0.36274-0.9453-2.2844-1.922-4.5312-2.2812-4.0424-0.6464-5.5543-3.3438-1.875-3.3438 1.1 0 2 0.3254 2 0.75 0 0.7794 11.28 3.25 14.875 3.25 1.0686 0 2.0979 0.4114 2.2812 0.9375s3.7188 1.4899 7.8438 2.125c8.3024 1.2783 8.9466 1.7948 8.9688 7.0938 0.00842 2.0166 0.59375 3.9085 1.2812 4.1875 0.94121 0.3819 0.87946 0.7522-0.25 1.5625-1.0782 0.7735-1.1698 1.3046-0.34375 1.8438 0.63206 0.4125 1.307 1.875 1.5 3.25 0.26316 1.8753 1.0309 2.5752 3.0938 2.8125 1.574 0.1811 2.75 0.9295 2.75 1.75 0 0.7885 0.38127 1.4375 0.84375 1.4375s1.3855 2.475 2.0625 5.5 1.5777 5.5 2 5.5 1.2655 1.0998 1.875 2.4375c2.055 4.5102 5.4591 7.5625 8.4062 7.5625 1.5508 0 2.8125 0.3639 2.8125 0.8125 79.961 25.292 177.62 45.168 252.84 54.594 7.9235 0.99277 14.219-2.2934 21.562-4.375 3.8722-1.0977 4.9309-0.31212 6.5 4.5312 3.1751 9.8009 18.183 13.863 27.344 14.625 38.312 3.1876 45.297-23.674 60.531-46.438 5.3338-7.9699 6.9533 1.9629 15.188-8.8125 3.9604-5.1826 10.972-26.235 24.562-22.281 77.144 12.152 129.13-38.165 196.81-60.656 1.216-0.40405 2.7101 4.1702 3.6562 6.0938 8.9202 8.52 32.686 8.6647 44.312 6.7188 12.915-7.3653 24.136-22.584 26.25-38.812 0.73765-5.6624 4.1571-8.8923 5.5938-5.125 3.1198 8.1812 17.844 0.41845 17.844-9.4062 0-6.1389 0.2954-17.975 0.65625-26.312 0.5933-13.707 0.49755-15.156-1-15.156-0.91087 0-1.6562-0.67501-1.6562-1.5 0-1 2.1036-2.5159 3.9375-3.3125 12.646-5.4936 20.898-14.623 27.281-19.188 1.5101-2.4181 3.3731-2.5644 5.5312-0.40625 16.522 7.3879 33.564-26.134 11.969-30.219-5.0163-0.6876-4.5772 2.7023-6.2812-49.312-0.24215-7.3912-0.8475-13.691-1.3438-14s-1.0123-3.2008-1.625-6.3125c-2.2437-11.395-29.498-4.8943-44.469-8.6875-13.898-4.9765-25.507-10.391-38-14.188-6.2066-1.8862-8.2582-3.2052-10.094-8.2812-14.854-49.711-48.367-71.825-94.406-83.594-74.56-20.033-153.23-16.72-229.62-11.906-2.4803-0.0818-4.9375-1.1798-4.9375-3.1562 5.6286-13.518 19.009-51.004 17.5-50.906zm-32.156 72c0.52491 9e-5 1.1402 0.34712 1.7812 1 1.0888 1.1089 1.2405 1.8896 0.5 2.5625-0.69754 0.6338-1.5994 0.41961-2.625-0.625-1.0888-1.109-1.2405-1.8896-0.5-2.5625 0.26158-0.23768 0.52881-0.37506 0.84375-0.375zm-64.812 10.938c-1.1777-0.00223-2.3608 0.01442-3.5312 0.03125-7.0228 0.10099-13.939 0.58885-20.656 2.5625-14.481 4.659-35.028 40.351-54.281 68.906-2.0963 4.178-6.6921 8.5312-9.0312 8.5312-1.081 0-1.9687 0.44999-1.9688 1 0 1.9942 7.1828 1.0832 9.125-1.1562 1.027-1.1841 1.875-2.5441 1.875-3s1.575-2.424 3.5-4.4062c10.973-17.822 34.88-59.736 49.5-65.812 9.6241-4.0004 12.324-2.7725 19-2.625 23.885 0.961-4.3848 2.9458-11.781 4.8438-2.8595 0.73374-12.004 50.344-18.438 65.156-1.6486 3.7958-5.0326 3.8141-9.0312 4.25-6.25 0.3551-6.25 0.36981 1 0.5625 8.4677 0.225 10.673 2.7464 3 3.4375-3.753 0.3381-3.5887 0.4082 1.4062 0.5625 5.2918 0.1635 5.6077 0.02789 5.0938-1.9375-0.62685-2.3971 6.2601-2.2857 7.75 0.125 0.9772 1.5811 1.8629-0.76641 1.2188-3.25-3.0254-3.3201-8.1458 3.3339-7.2188-3.75 4.2316-19.751 10.423-37.548 15.938-57.188 1.3524-7.209 5.6609-8.8125 27.562-8.8125 12.333 0 13.568 0.39708 19.5 1 3.2158 0.32682 6.5494-0.09493 3.5312 5.3438-5.4484 15.496-12.571 53.813-24.375 63.656-7.6646 0.91983-15.851-4.4449-23.562-0.4375-1.2991 3.6794 2.3381 2.072 5.2812 2.4375 16.349 0 6.9145 2.7158-11.062 3.1875-10.748 0.2821-18.264 0.8847-18.656 1.5-4.9925 3.1273-24.677 4.5279-31.625 3.5-0.15072 1.4563 0.02371 5.843 1.375 4.4375 0.07408-1.7451 0.89506-1.8328 13.094-1.2812 12.157-0.07893 23.862 1.6212 36 2.6562 15.055 0 13.857-1.6004-1.8438-2.4688-11.694-0.6468-16.466-1.5648-15.094-2.9375 0.91063-0.9107 23.163-2.7273 31.438-2.5625 11.662 0.2324 15.427-0.71679 9.75-2.4375-0.9625-0.2917 0.7966-0.28439 3.9062 0 3.4595 0.3164 5.9117 0.11734 6.3125-0.53125 1.0548-1.7066 2.5313-1.2404 2.5312 0.8125 0 2.3497 0.96985 2.7316 9.3125 3.625 15.623 1.9627 33.051 9.1762 49.188 11 7.7046 0.9311 4.5496-2.9309-3.3438-4.0938-7.0417-1.2214-15.566-3.6427-21.5-6.5938-0.39711-1.5186-0.93106-1.6616-3-0.875-6.6406-0.11467-27.003-0.58463-26.312-6.6875 0.4843-2.9956 3.207-13.878 5.6562-14.25 1.3102-0.19899 2.2585 0.69977 2 2-0.86359 4.3444-5.2278 17.306-3.125 15 8.2101-16.528 14.351-52.018 16.812-52.656 2.1353-0.55386-7.2843 27.812-10.75 41.656-1.7404 1.1537-2.15 12.315-0.5625 11.406 4.0289-2.3053 3.91-8.658 10.031-11.062 5.789-2.274 25.718-1.4608 29.562 0.59375 3.9923 2.1334 35.499 2.4153 37.625 0.21875 3.1322-3.2362 5.7535-6.3175 10.062-7.9688 15.647-5.9961 31.085-0.34217 43.625 10.312 3.0062 3.0798 7.3162 6.786 11.719 6.5 3.984-0.2588 6 0.44449 6 1-1.8001 7.388-5.4769 13.747-10 19-1.0831 1.2737-3.7289-0.35724-4 0.9375-0.1953 0.9327 1.7894 1.2023 2 2.5625-3.9779 5.4752-12.047 6.2737-18.25 6.4375-4.5161 0.0414-5.6679 0.76959-4 2.5 6.761 1.1662 13.848 0.16282 19.688-3.4375 9.8534-6.0751 13.313-18.937 17.594-29.031 7.1363-16.011 26.399-47.23 9-59.812s-81.913-13.931-106.03-17.125c-27.28-2.5831-54.65-4.5352-82-5.0312-1.1811-0.0079-2.3535-0.02902-3.5312-0.03125zm10.219 3.9688c4.3636-0.11104 10.26 0.46638 10.656 1.5 0.4425 1.1531-0.4958 1.4021-4.6562 1.25-7.9838-0.292-10.687-0.7309-10.688-1.75 0-0.6123 2.0694-0.93337 4.6875-1zm23.312 2.1875c0.63437 0 1.2688 0.06175 1.75 0.1875 0.9625 0.2515 0.17501 0.4375-1.75 0.4375s-2.7125-0.186-1.75-0.4375c0.48125-0.12575 1.1156-0.1875 1.75-0.1875zm9.125 0c4.8752-0.11904 11.769 0.1795 13.875 0.84375 1.5339 0.4837-1.6542 0.75905-8.25 0.71875-5.9125-0.0361-10.75-0.4227-10.75-0.875 0-0.38756 2.1998-0.61608 5.125-0.6875zm29.375 1.875c0.825 0 1.5 0.45 1.5 1s-0.67499 1-1.5 1c-0.825 0-1.5-0.45-1.5-1s0.67501-1 1.5-1zm-5.4062 0.46875c0.05547-0.01167 0.10665-0.01242 0.15625 0 0.87304 0.21854 0.82317 4.0224-0.6875 5.8125-4.2246 5.3881 3.2924 6.2884 5.9062 2.7188-2.1291-1.6512 0.1741-2.4354 2.4062-2.9062 5.8866-1.1079 11.699 4.6644 16.812 2.2188 6.1409-3.0634 13.633-1.4051 19.594 1.2188 5.9114 5.3989-2.1862 11.85-1.6562 18.219-1.1594 6.0576-4.691 12.497-4.9688 17.562-2.7353 5.8621-1.6316 15.39-10.5 15.375l-0.25 0.125c-8.7425 2.3173-18.055 1.6173-27.062 1.6875-7.1239-1.2173-18.704 1.5899-22.938-3.5625 1.6244-5.8072 2.3558-11.731 3.0312-17.656 3.004-2.977 0.7112-11.643 5.1875-11.25 5.4321 2.9194 11.58 4.8241 17.875 4.125 7.3988 1.295 12.024-11.031 6.0312-14.75-5.0752-0.27892-10.347-1.0938-15-3.4062-4.7071 3.2997 4.7413 4.5052 7.0625 4.4375 7.6314-0.67017 9.0154 9.2389 1.3125 10.25-6.1746 2.1655-12.862-0.6399-17.531-4.75-6.5097-5.7298 5.1327-8.2832 3.6562-14.406 5.3041-0.10977 8.7464-3.3146 10-8.625 0.64286-1.6606 1.1742-2.3558 1.5625-2.4375zm-29.562 0.9375c1.2434-0.37464-15.185 48.488-17.625 64.594-1.0698 2.1183-2.3592 4.4076-6.2812 3.4375 7.5288-1.9576 19.536-67.151 23.844-68 0.02877-0.03109 0.04276-0.0253 0.0625-0.03125zm294.62 2.9688c-11.435 0.06626-23.429 1.2712-33 2.1875-4.1884 0.40098 12.8 79.846 13.531 88.781 0.38599 0.386 1.8485 0.51091 3.25 0.25 22.744-3.6083 49.108-5.6385 69.531-11.781 7.0414-2.1179-10.886-54.984-13.938-63.281-1.9616-5.3342-6.3953-11.035-15.125-13.594-6.805-1.9943-15.356-2.614-24.25-2.5625zm-356.53 0.78125c-1.0122 0.19376-2.5804 2.8668-2.9375 4-3.5241 5.4971-7.4202 10.759-10.969 16.25-3.7282 6.3377-8.7754 11.809-12.281 18.281-4.357 5.8916-7.5008 12.626-12.438 18.094-0.98258 3.6939-4.8327 5.4358-6.625 8.625l0.15625 0.34375 0.125 0.3125c2.3154 2.4569 5.0888-2.2383 5.0312-4.4688 2.7138-4.6894 6.6861-8.5149 9.2812-13.281 1.4343-3.1959 2.8157-6.5354 5.375-9.0312 4.5611-6.2382 8.5077-12.899 13.094-19.125 3.01-3.5277 5.5213-7.4472 7.5938-11.594 1.2255-3.0286 3.8571-5.1426 5.1875-8.0938-0.15193-0.26705-0.36016-0.35721-0.59375-0.3125zm178.38 2.8438c1.1 0 2 0.45 2 1s-0.89999 1-2 1-2-0.45-2-1 0.90001-1 2-1zm123.5 0c-20.174 2.1488-55.097 3.3412-57.875 6.9688-3.014 3.9361-15.144 45.667-22.188 67.781-0.7192 2.0769-4.3118 18.576-2.5 20.469 5.1537 5.3846 7.4188 8.8307 16.312 8.2188 8.0331-1.5256 17.335 0.6952 24.906-2.6562 0.63439-0.9996 0.80052-1.0108 0.8125-0.03125 0.00842 0.6875 1.1563 1.25 2.5312 1.25 1.375 0 2.5-0.38185 2.5-0.84375 15.505-4.4936 32.037-4.6696 47.812-8.1562 0.18334-0.5468 0.94118-1 1.6562-1 5.245-27.87-2.6403-56.751-6.2188-83.844-0.96895-7.3357-3.25-8.1562-7.75-8.1562zm-157.53 0.1875c3.1049 1.0797 9.5366 2.0878 11.688 6.4375 4.5263 6.7281-0.41818 12.762-2.5312 19.094-3.2893 5.8736-3.3964 12.613-5.625 18.75-4.6517 2.777-9.5044 6.0742-14.531 8.5312l-0.375-0.71875c-5.9101-0.92444 1.058-10.21 0.84375-14.406 1.6291-6.7554 4.7028-13.103 5.0312-20.219 1.6873-5.8298 3.1544-11.862 5.5-17.469zm45.969 1.8125c1.1325 0 2.0625 0.45 2.0625 1 0 1.2984-2.6976 1.2984-3.5 0-0.33992-0.55 0.30505-1 1.4375-1zm146.47 1.2812c10.794-0.01419 21.616 1.0876 32.219 1.5625 6.706 0.30033 5.9841 1.0956 9.4375 20.844 2.348 16.548 3.17 34.408 8.4688 50.125 2.3619 1.8031-1.2011 4.0984-3.0312 2.25-1.7212-10.931-3.3257-21.966-4.75-32.875-15.609-4.8543-33.303-0.7783-48.25-5.625-1.944-11.833-4.8739-23.911-4.875-35.844 3.5856-0.32401 7.1831-0.43277 10.781-0.4375zm-58.688 1.5938c10.824-0.09191 20.947 0.83735 23.469 1.4062 8.6011 13.207 10.884 67.653 10.781 84.469-2.9844-13.742-3.2534-31.355-6.0938-45.844-2.1501-10.968-39.822-9.2299-46.219-7.6562-2.0624 0.70498-4.9248-18.152-5.6875-22.5-0.00886-1.8803-0.33988-2.7568-0.78125-2.0625-0.75739 22.335 3.2962 51.321 9.9375 77.312 0.73024 2.8579 1.0293 6.2545 0.125 8.9062-6.2287-19.461-15.897-70.885-13.156-89.406 5.2964-3.4422 16.801-4.5331 27.625-4.625zm-79.812 0.1875c2.2808-0.13508 5.5717 1.0119 7.6875 2.25 9.6682 3.0596 14.865 15.739 9.6562 24.531-0.31179 0.74289-0.58994 1.5198-1.1875 2.0938-3.683-2.4939-8.3036 0.82602-12.031-2.0625-3.3818-6.3806-4.0147-14.219-5.7812-21.344-1.8908-3.9029-0.62456-5.3337 1.6562-5.4688zm181.72 0.8125c14.261 0.24991 21.406 28.67 21.469 40.375 0.01183 2.2152-17.237 1.2279-18.156-0.90625-2.2513-5.2264-4.1337-31.494-6.25-39.125 1.0142-0.24691 1.9867-0.36041 2.9375-0.34375zm-134.69 6.2812c0.97193-0.09212 2.067 0.46612 2.1875 1.5 0.20404 7.0769 1.5142 14.561 0.5 21.469-2.6987 1.8872-7.157 1.3511-10.125 0.21875-1.0152-5.658 4.4929-16.552 6.0625-22.281 0.2688-0.56381 0.79184-0.85098 1.375-0.90625zm-87.188 41.688c-0.17292-0.00735-0.34665-1.4e-4 -0.53125 0.03125-1.0739 0.35409-2.235 0.06378-3.3438 0.09375-3.912 0.11935-7.9361 0.14944-11.625 1.625-2.0394 2.5747-6.0062 3.0983-7.3438 6.3125 0.33032 2.6662 2.6993 0.21898 2.9062-1.0312 2.5306-1.7224 5.6855-0.48691 8.5-0.875 4.254-0.01429 8.5328 0.14455 12.75-0.53125 2.4751-1.289 1.2813-5.5148-1.3125-5.625zm11.469 2.4688c-3.1144 0.0942-4.1719 5.559-0.78125 6.125 3.337-0.91419 15.33 5.0048 11.844 1.375-2.1857-2.7857-5.067-5.2385-8.5938-6.0312-0.90748-0.32973-1.7864-0.77165-2.4688-1.4688zm-55.031 3.7188c0.61005 1.3955-3.5845 2.4243-0.84375 3.0625 2.7874 1.0823 1.0321 5.0016-1.3438 5.4375-1.96 1.0682-4.2533 1.8988-6.5 1.375-3.2177 0.11829-4.9532 4.9174-2.4062 6.9688 2.642 0.51056 3.3937-4.2888 6.3438-2.6562 1.8415 1.1336 3.5393 4.2024 5.9375 2.1875 1.3737-1.1477 3.4535 0.67858 1.4062 1.5625-1.4685 1.0872-2.3547 4.1482-0.0625 4.7812 2.8006 0.24031 5.4204 1.3916 7.8125 2.8125 3.5844 1.5988 7.6425 0.92507 11.375 1.8125 2.6712 0.82372 4.1203-3.8197 1.125-3.9375-2.2242-1.0319 1.5633-4.0718 2.9688-2.0938 2.4319 1.4347 2.4818 4.2985 1.625 6.6875-0.14548 2.847 4.3482-0.67197 5 2.125 1.3501 2.5309 4.3015-0.44412 2.25-2.1875-1.3882-3.5708-3.4636-7.2676-7.0938-8.9375-2.4264-1.6576-4.8214-3.5327-7.8125-4-3.1668-0.63426-6.4482-0.75434-9.6562-0.5-2.4986 0.80718-5.2895 0.33305-7-1.7812-1.4808-1.166-3.3722-2.8368-1.2188-4.5 1.7908-1.1541 2.1137-3.3549 3.7188-4.4375 1.6564-2.5994-2.6374-1.1257-3.8125-2.3438-0.70289-0.33818-1.3398-0.81258-1.8125-1.4375zm-110.91 0.03125c-0.7409 0-1.2812 0.6496-1.2812 1.9375 0 1.4685 0.6582 2 2.5 2 2.2582 0 2.3744-0.1995 1.25-2-0.80432-1.2879-1.7278-1.9375-2.4688-1.9375zm-36.656 1.9375c-2.475 0-4.7851 0.45-5.125 1-0.37705 0.6101 1.1296 1 3.875 1 2.475 0 4.7851-0.45 5.125-1 0.37705-0.61-1.1296-1-3.875-1zm199.84 1c-2.3742 2.4988-1.3444 6.1391-1.5625 9.2188 0.1284 3.6778 0.47779 7.4461 2 10.844 2.6763 1.9653 6.0784 2.9993 8.1875 5.6875 2.6427 2.1602 3.6044-2.6778 1.0312-3.5-2.1928-2.3064-5.7277-2.508-8-4.6562-2.6201-2.813-2.9756-7.538-0.78125-10.688 2.3868-2.1709 4.9049 1.4856 7.5 1.2188 2.5122-0.02162 4.5691 1.4615 5.9688 3.4375 1.7593 1.8638 4.1128 2.9674 5.5312 5.1875 1.1104 1.8694 4.0871 0.27611 1.9375-1.2812-2.3369-1.7797-4.1299-4.0584-6.2812-6.0312-2.8872-2.616-6.4442-4.7901-10.438-4.9375-2.4816-0.35086-3.5434-2.8877-5.0938-4.5zm-16.156 0.3125c-0.16783 0.01901-0.37711 0.07311-0.65625 0.15625-2.7779 0.16309-5.6787 0.08247-8.2812 1.2188 2.0536 2.2928 5.8003 1.6867 7.9688-0.125 0.82732-0.13213 2.1436-1.3831 0.96875-1.25zm6.6875 0.6875c-2.7036 3.6484-8.5628 2.782-10.844 6.9062-1.1847 1.6641-2.0542 4.3934-0.53125 6.0938 3.1766 1.348 2.494-4.04 4.625-5.1875 2.1254-1.9675 4.793-3.1755 7.2188-4.6562 0.82062-0.9173 0.74906-2.6126-0.46875-3.1562zm-23.469 0.5625c-0.22831 0.04578-0.5403 0.25638-0.9375 0.625-1.0065 0.9341-1.0754 1.4991-0.25 2.0312 0.82055 0.5291 0.80651 0.73901-0.09375 0.75-0.6875 0.0084-1.25 0.70625-1.25 1.5312 0 2.3112 1.6982 1.7753 2.375-0.75 0.79366-2.9614 0.84117-4.3248 0.15625-4.1875zm50.219 2.5c-0.18658 2.9597 4.1141 2.8211 5.0625 5.3125 2.4254 0.53766-0.80773-2.1667-1.5-2.7188-1.0898-0.88757-2.1761-2.3403-3.5625-2.5938zm13.188 0c-0.8688 0.016-0.74206 0.46137 0.03125 1.9062 1.2318 2.3017 3.5313 2.2617 3.5312-0.0625 0-0.7792-1.0634-1.5687-2.3438-1.75-0.52379-0.0742-0.92915-0.09908-1.2188-0.09375zm242.66 0.0625c-0.12549 0.00773-0.25152 0.0327-0.40625 0.0625-0.91307 0.1758-1.8159 1.1063-2 2.0625-0.47909 2.4877 2.4697 2.1933 3.125-0.3125 0.35116-1.3429 0.15966-1.8666-0.71875-1.8125zm-206.16 3.0312c3.9113-0.02754 13.019 1.0039 19.906 1.6875 1.9886 0.06865 5.2353 19.445 6.5 25.688-9.1106 2.2937-32.758 7.6226-38.438-4.2812 0.98102-18.849 3.4263-23.033 12.031-23.094zm-213.31 1.8125c-0.1936-0.02107-0.40981-0.01074-0.625 0.03125-4.2512 0.69894 1.6362 4.6598 3.5938 2.9688 7.3862 0.66503 14.921 0.57914 22.031 2.9375 4.619 0.2094 9.2229 0.49268 13.688 1.7188 1.5321 0.21612 5.6228 0.56358 5.5625-0.3125-5.0434-0.73325-9.9382-2.0976-14.875-3.2812-8.5127-1.3594-17.135-2.0281-25.75-2.2188-1.3829-0.19105-2.2698-1.6963-3.625-1.8438zm242.56 0.3125c4.49 0.00238 12.593 1.5582 16.312 1.5938 12.754 0.12198 25.751 4.0393 27.5 18.031-8.0207-1.1908-33.602 7.4336-37.906 4.7188-4.525-6.1489-8.9086-23.996-7.5625-24.219 0.47132-0.07154 1.0148-0.12534 1.6562-0.125zm-70.125 2.0938c-0.10298-0.00474-0.18259 0.01057-0.25 0.03125-0.44942 0.13788-0.1432 0.92862 0.65625 3.0312 1.2265 3.226 3.0313 3.3086 3.0312 0.15625 0-1.5424-0.70572-2.5678-2-2.9062-0.65153-0.17039-1.1286-0.29828-1.4375-0.3125zm316.75 2.0938c2.9949-0.09344 8.1767 0.97925 9.9062 1.4375 2.1664 0.56609-4.6999 0.9459-8.4688 0.375-3.4629-1.2784-3.2344-1.7564-1.4375-1.8125zm-377.69 1.6875c1.5494-0.05168 1.4723 3.0579-0.0625 3.5-0.85465 2.5276-4.4001 1.649-5.1562-0.3125-1.3246 0.40605-5.1926 1.0239-2.9375-1.25 2.0593-1.3652 4.6425-1.1861 6.9688-1.6875l0.4375-0.03125c0.28876-0.15354 0.52866-0.21137 0.75-0.21875zm-60.625 1.8438c-4.4835 0.45112 3.6268 3.1875 0.75 0.125-0.25391-0.03837-0.49609-0.08662-0.75-0.125zm451.09 1.7812c0.22809 0.01119 0.53378 0.12468 0.90625 0.375 0.73828-0.07769 1.7138 1.9997 2.2812 5.9062 0.43281 2.9796 0.61811 6.5625 0.40625 7.9375-1.6966-4.12-5.7986-14.327-3.5938-14.219zm-414.72 0.21875c-0.825 0-1.2149 0.45-0.875 1s1.3 1 2.125 1 1.2149-0.45 0.875-1-1.3-1-2.125-1zm-30.625 0.28125c-3.7804 0.7913 2.6484 2.595 4.0312 1.6562 4.7795 0.71044 9.2262 2.9474 14.094 3.2188 4.2174 0.32668 7.8335 2.6794 11.969 2.875 1.3715 0.40085 6.9231 2.5055 5.75 0.1875-4.9674-3.9504-11.819-2.573-17.531-4.5-3.7336-1.366-7.5145-2.5546-11.5-2.9062-2.2607-0.28224-4.5361-0.44803-6.8125-0.53125zm-6.7188 1.6562c-0.25052 0.00769-0.50546 0.0253-0.75 0.0625-5.4744 2.2185 6.2329 5.1285 2.9062 0.40625-0.65507-0.38401-1.4047-0.49183-2.1562-0.46875zm-177.09 3.2188c-1.5632 0.38898-2.8427 0.87468-3.25 1.2812-0.78565 0.78427-3.801 1.8333-6.9062 2.5938 0.04513-0.51701 0.11162-1.0351 0.125-1.4688 0.04602-1.4909 0.2806-2.1837 0.53125-1.5625 0.54007 1.3384 3.9062 1.5261 3.9062 0.21875 0-0.49695 1.0536-0.90625 2.3438-0.90625 1.1472 0 2.241-0.04796 3.25-0.15625zm183.75 0.21875c4.4576 3.6622 10.447 4.1094 15.938 4.8125 6.0923 3.6411 13.889 2.112 19.844 6.125 1.5262 1.004 6.1168-0.06363 2.375-1.3438-4.8436-2.1802-10.381-2.2624-15.125-4.7188-4.9899-1.549-10.406-1.525-15.188-3.7812-2.5481-0.74393-5.199-1.0193-7.8438-1.0938zm347.56 0.0625c-3.5635 0.04161-7.0559 0.86-10.594 1.1875-2.2013 0.11166-4.6174 0.45263-6.625-0.6875-0.87191-0.43978-2.392-0.57806-2.625 0.65625 0.01943 1.3999 0.13299 2.9413 1.0312 4.0938 1.679 1.6098 4.1195 1.9707 6.3438 2.1875 2.6532 0.39535 5.3992-0.15024 8 0.625 1.5146 0.04765 1.8996 1.9945 3.3125 2.25 0.53486-0.83101 2.412-1.7761 2.9062-0.25 0.5445 0.70654 1.4999 0.79621 2.3125 0.59375 2.2003-0.58199 4.0427-2.2929 5.0312-4.3125 0.63583-1.0212 0.67966-2.8842-0.78125-3.1875-3.621-0.08175-7.2348-0.04443-10.844 0.3125-1.3988 0.00694-2.7215 0.48276-4.0938 0.65625-1.3338 0.29544-1.5825-1.4741-0.34375-1.7812 1.8955-0.51328 3.9231-0.21151 5.8438-0.59375 0.99725 0.24821 2.797-1.4521 1.125-1.75zm3.25 4.5625c0.825 0 1.5 0.675 1.5 1.5 0 1.5616-1.1931 1.9631-2.3438 0.8125s-0.71781-2.3125 0.84375-2.3125zm-98.625 10.562c0.9546 0.00259 2.399 0.23533 4.375 0.6875 5.0626 1.1585 6.3704 2.75 2.25 2.75-1.375 0-2.5-0.45-2.5-1s-0.65836-1-1.4375-1-1.5667 0.41045-1.75 0.90625-0.88046 0.27295-1.5625-0.46875c-1.1628-1.2646-0.96599-1.8793 0.625-1.875zm176.38 3.5312c-2.9122-0.0656-5.25 0.35155-5.25 0.90625 0 1.1308 3.0563 1.1308 7.5 0 2.5643-0.6525 2.2376-0.80505-2.25-0.90625zm-185.66 0.59375c0.96678-0.00399 1.7821 0.13543 1.9688 0.4375 0.29434 0.4763-0.81753 0.875-2.5 0.875s-3.0625-0.19536-3.0625-0.40625c0-0.53037 1.9824-0.89959 3.5938-0.90625zm-172.62 1.4375c-1.6026 0.01205-3.4161 0.05149-5.5 0.09375-16.588 0.3364-17.001 0.58911-13.125 9.0625 2.637 5.7651 4.6563 7.3791 4.6562 3.7188 0-1.1-0.41589-2-0.90625-2s-1.1677-1.0824-1.5-2.4062-0.84634-3.0674-1.1562-3.875c-0.4771-1.2433 1.2132-1.45 11-1.3438 10.91 0.1185 14.648 1.209 10.062 2.9688-1.0263 0.3938-1.5 2.0104-1.5 5.0938 0 4.4244-0.04424 4.4887-2.5625 3.5312-1.4108-0.5364-3.6608-0.96876-5-0.96875-2.6968 0-3.2786-1.4766-0.9375-2.375 1.6082-0.6171 2.0933-4.625 0.5625-4.625-2.0515 0-4.0625 1.2835-4.0625 2.5938 0 0.7662-0.43016 1.4062-0.9375 1.4062s-1.4607 1.6875-2.125 3.75-1.5286 4.2-1.9375 4.75-1.0403 3.0622-1.4062 5.5938c-0.61794 4.2749-0.97769 4.6921-4.6562 5.9062-2.1784 0.7189-3.9375 1.9422-3.9375 2.7188 0 1.43 10.786 0.8674 12-0.625 0.96164-1.1822 4.9683-3.0938 6.4688-3.0938 0.83246 0 1.5313-0.67501 1.5312-1.5 0-2.2126-6.5883-2.0076-8.0312 0.25-0.95464 1.4937-1.0363 1.3838-0.5625-0.75 0.30533-1.375 0.60532-3.85 0.65625-5.5s0.31634-2.4375 0.59375-1.75c0.59772 1.4813 4.3438 1.6969 4.3438 0.25 0-0.55 1.1659-1 2.5938-1 10.157 0 15.375-3.8256 16.094-11.75 0.65217-7.1923 0.49959-8.2093-10.719-8.125zm377.34 6.625c5.3898-0.09594 2.8257 8.2306 3.6875 24.25 0.1603 5.9069 1.0423 12.255-2.5 17-1.5395 3.5389-6.2108 8.3006-2.9375 12 0.79042 0 1.4375 0.67499 1.4375 1.5-7.586 12.272-19.347 24.785-33.406 28.812 3.7064-4.8094 4.3194-12.722 5.4062-18.406 0-8.8761-2.3054-7.3653-3.1562 2.0625-1.3025 7.4988-3.5216 14.38-8.1875 20.156-1.2738 2.6814-5.2122 1.626-6.6562-0.625 4.3583-3.9327 9.9101-10.155 7.7812-23.406-0.63458-5.4362 6.0877-1.1132 4.8438-4.5938-1.6679-1.6678-3.7232-1.2932-8.625-0.5-11.175 1.8084-25.667 2.1752-48.281 16.5-9.5845 11.682-8.7494 28.55-18.188 39.875-2.4729 2.8754-2.5016 2.8754-1.875-4 1.7361-15.79 3.5545-43.263 23.281-46.781 5.0662-0.6721 5.0625-0.65949 5.0625-6.125 0-4.5236 0.30162-5.4985 1.75-5.5312 4.3527-0.0984 29.295-3.6383 29.906-4.25 1.5556-1.5556-25.862 0.96489-29.906 2.75-1.6262 0.7178-1.75-0.37616-1.75-15.344 0-13.651 0.04126-16.687 1.3125-16.688 12.97-6.1294 25.807-4.6112 41.5-9.0312 17.648-4.9707 13.659 0.92391 15.188 11.188 0.91394 6.1352 14.018-1.8732 13.969-6.8125-0.2794-6.7944-0.6992-12.045 7.5312-13.438 1.1287-0.35969 2.0425-0.54879 2.8125-0.5625zm-384.22 9.25c3.1171 0 3.888 1.3867 1.3125 2.375-2.9819 1.1443-5.3905 0.7126-4.7812-0.875 0.32811-0.855 1.8197-1.5 3.4688-1.5zm-12.094 4c-31.635 6.8323-62.924 14.499-94 23.594-5.1931 1.5836-10.371 3.2447-15.25 5.6562 3.4675 1.2997 7.4654-2.3476 11.188-2.8125 29.207-10.048 59.934-14.346 89.719-22.031 2.7585-1.1234 6.0036-0.70668 8.625-1.7188 0.6377-0.78524 0.4523-2.0327-0.28125-2.6875zm214.5 6c-1.7915 0-2.7518 3.1618-1.9375 6.4062 0.72901 2.9046 5.4375 3.8527 5.4375 1.0938 0-0.9497-0.97432-1.5-2.625-1.5-1.9664 0-2.4578-0.40055-2-1.5938 0.33385-0.8699 0.62501-1.7699 0.625-2s0.45001-0.40626 1-0.40625 1 0.73955 1 1.6562 0.26854 1.3877 0.59375 1.0625c1.0031-1.0031-0.64826-4.7188-2.0938-4.7188zm-223.97 1.4062c-5.0981 1.2778-10.502 2.7027-15.406 3.8438-0.93399 0.21731-1.9946 2.6609-0.89118 2.3504 5.4502-1.5333 10.622-1.9408 15.98-3.3956 0.9356-0.24521 1.9785 0.21122 2.8175-0.29855 0.77064-0.38972 1.0242-1.7234 0.15625-2.125-0.85256-0.24996-1.7602-0.38725-2.6562-0.375zm-23.688 6.2188c-10.61 2.6621-21.393 4.7971-31.719 8.4688-14.979 2.287-29.157 7.5814-43.438 12.375-5.3948-0.34075-10.597 1.6373-15.375 3.9375-3.4132-2.8032-8.0017-1.0908-11.25 1.0312-4.1006 1.6545-9.8453 2.7778-10.875 7.875-0.9087 6.542 4.9379 0.3709 7-0.8125 5.1162-0.54124 10.367-1.5227 14.812-4.25 27.575-10.096 56.12-17.429 84.531-24.781 1.8637-0.43777 9.2978-1.3784 6.3125-3.8438zm-408.97 8.9375c3.4022-0.05773 7.0826 1.4184 7.0938 3.0625 0.00429 0.6297 1.1734 2.2047 2.5938 3.5 6.9808 6.3656 7.8085 12.266 1.875 13.469-3.0337 0.6148-5.8099 1.4349-6.1875 1.8125-0.96832 0.9683 1.9436 2.6199 3.75 2.125 9.0067-2.4677 10.868 7.7878 2.875 15.781-7.2642 7.2642-20.297 5.0917-13.875-2.3125 1.1-1.2683 2-3.3353 2-4.5938 0-2.6012 1.5488-4.0505 2.3125-2.1562 0.27855 0.6909 0.55033 0.22354 0.59375-1.0312s0.82921-2.5648 1.7188-2.9062c1.3498-0.5179 1.2152-0.82321-0.75-1.875-1.2951-0.6931-2.7056-1.0717-3.125-0.8125s-0.75 0.23144-0.75-0.09375 1.0125-1.0026 2.25-1.5c2.7155-1.0915-4.1409-1.4404-8-0.40625-3.7156 0.9957-2.535 2.4946 1.5 1.9062 3.75-0.5467 3.7424-0.53501-0.9375 1.5625-2.5739 1.1536-4.9699 2.8258-5.3125 3.7188s-0.29721 1.2973 0.09375 0.90625 1.3244-0.20624 2.0625 0.40625c0.75403 0.6258 1.3438 0.69675 1.3438 0.15625 0-1.0393 4.3753-3.4206 7.3125-3.9688 1.0904-0.2035 1.5236 0.1049 1.125 0.75-0.36412 0.5891-1.178 0.84925-1.8438 0.59375s-2.3152 0.37555-3.6562 1.4062c-1.8721 1.4389-2.0526 1.8892-0.78125 1.9062 1.4065 0.0189 1.4818 0.3832 0.5 2.5-1.3617 2.9358-2.4461 3.1984-3.4375 0.78125-0.39478-0.9625-1.3938-1.75-2.2188-1.75-1.0115 0-1.6032-1.2213-1.8125-3.75-0.25346-3.0624 0.02158-3.7687 1.5-3.7812 1.4886-0.0126 1.5378-0.1821 0.34375-0.9375-0.79874-0.5053-1.8112-0.67746-2.25-0.40625s-0.78125-0.43-0.78125-1.5625 0.3375-2.0338 0.75-1.9688 4.0357 0.06521 8.0625 0c11.78-0.1905 6.0458-3.7095-6.5625-4.0312-4.1536-0.1059-1.7619-10.204 2.875-12.125 1.5734-0.6517 2.875-1.7512 2.875-2.4375s1.5396-1.5045 3.4375-1.8125c0.46227-0.07501 0.95147-0.11675 1.4375-0.125zm845.47 3.5312c5.879 0.30981 11.701 2.7956 10.281 8.1562-0.49404 1.8648-0.33008 1.913-11.781 1-7.7757-0.87715-2.3202-6.8874 1.5-9.1562zm-521.34 4.9062c-0.55 0-0.99999 0.62154-1 1.4062s-0.78749 1.6547-1.75 1.9062-1.2362 0.49871-0.59375 0.5625c2.1063 0.2092 4.3438-1.0796 4.3438-2.5 0-0.7661-0.44999-1.375-1-1.375zm427.97 8.8438c1.7515 0.09435 3.2974 1.4362 3.125 3.5938-0.67897 3.4666-3.9815 6.2573-7.3125 6.7188-4.8894 0.67734-10.416 4.7601-12.781 8.9062-4.1146 7.2128-4.794 14.55-8.375 21.938-3.1358 3.1528-8.3944 1.3983-11.719 4.25-1.9575 1.4111-4.4605 1.9741-6.8438 1.6875-7.3586-1.463-7.4757-10.542-7.75-16.625-0.01988-12.945 11.452-21.297 22.531-25.406 9.1975-2.9073 18.926-3.5842 28.375-5.0312 0.25463-0.039 0.49979-0.04473 0.75-0.03125zm91.406 2.9062c1.6819-0.08847 3.5536 0.54109 4.625 1.75-2.6334 0.00116-5.1411 5.8696-6.5 6.5-1.0833 0-1.5-1.1111-1.5-4-0.63063-2.8313 1.2126-4.1362 3.375-4.25zm-303.88 2.2812c-8.0871 0.10469-23.144 5.6921-31.531 6.9375-41.974 9.3908-83.869 19.359-125.84 28.719-16.393 4.9012-33.35 7.4188-49.75 12.156 2.8432-0.20817 9.2254-1.6022 13.594-1.7188 22.996-3.0753 45.252-10.318 67.938-15.188 32.33-6.0386 63.828-15.886 96.219-21.531 11.133-3.9392 23.543-2.8846 34.25-7.9375-0.86958-1.0414-2.6106-1.4668-4.875-1.4375zm-408.97 0.875c-4.4726 0.39327-0.56166 9.5736-7 7.625-4.2595 0.76073-8.0187-2.2271-12.188-1.5-5.2153 2.3761 4.2212 4.1625 6.4375 4.375 3.5356 1.7257 6.511 4.8016 10.438 5.8125 3.951 1.0647 7.59 1.9579 10.812 3.125 4.0427-3.7709 9.545-2.9089 14.625-3.25 2.8793 0.32003 10.004-1.2901 3.9375-2.9688-4.7287-0.14077-9.238-1.533-13.562-3.375-2.2012-0.88231-8.6825-0.26164-4.8125-3.7188 1.0294-4.6875-4.6286-6.3164-8.2188-6.125-0.16235-0.00627-0.32447-0.01269-0.46875 0zm1.75 3.4062c0.17335-0.02568 0.35208-0.02837 0.53125 0 5.8641 1.7583-5.0894 5.1065-1.9375 0.6875 0.3974-0.33042 0.88621-0.61047 1.4062-0.6875zm-133.59 4.875c0.36013-0.06117 0.34508 0.48594 0.15625 1.7812-0.19032 1.3056-0.90625 2.5549-1.5938 2.7812-1.7992 0.5925-1.5433-2.2776 0.34375-3.8438 0.52255-0.43369 0.87767-0.68205 1.0938-0.71875zm290.69 0.03125c8.3941-0.32347 13.207 4.2934 19.312 9.5312 7.9161 6.7914 14.719 26.195 8.1562 26.375-8.6106 0.2358-16.36-0.33195-16.688-1.2188-0.45465-1.232-3.1562-1.1522-3.1562 0.09375 0 0.55-1.125 0.99999-2.5 1s-2.5 0.48414-2.5 1.0938c0 0.683 0.95961 0.8866 2.5 0.5 1.8449-0.4631 2.5-0.246 2.5 0.875 0 1.3882 3.78 2.0785 9.875 1.7812 1.5159-0.074 0.87033 8.6244-0.71875 9.6875-0.45567 0.3048-1.3516 2.0398-1.9688 3.8438-1.6784 4.9056-5.7524 8.2188-10.125 8.2188-1.1362 0-2.0625 0.45-2.0625 1s-1.575 1-3.5 1-3.5-0.45-3.5-1-1.125-1-2.5-1-2.5-0.45-2.5-1-0.36936-0.8875-0.8125-0.75c-1.5612 0.4844-6.4976-5.8413-9.4375-12.062-5.608-11.867-2.4511-32.188 5-32.188 0.68929 0 1.25-0.45001 1.25-1 0-1.4345 2.6996-1.236 3.4062 0.25 0.32694 0.6875 0.44364 0.34999 0.25-0.75-0.28603-1.6248 0.23886-2.0222 2.75-2.125 5.2365-0.2144 12.594 1.6808 12.594 3.25 0 0.7874 0.78751 1.7326 1.75 2.0938s2.2988 1.3598 2.9688 2.2188c1.5973 2.0481 2.0794-0.55721 0.15625-3.7188-2.6302-4.3239-7.5043-7.1181-12.094-9.3438-0.59052-0.24992-3.0426-1.166-6.4688-1.25-6.8155-0.1671-5.2923-1.7412-0.9375-3.7188s5.809-1.5645 9-1.6875zm176.31 0.15625c-4.0064 0.47094-8.0221 1.0493-12 1.7188-10.751 2.3473-21.772 3.0957-32.5 5.5625-5.4193 1.4539-11.703 1.013-16.188 4.9062 1.1838 2.7607 4.4858 0.2182 6.1562-0.75 9.9625-3.0714 20.471-3.5092 30.75-4.8438 8.1036-1.2898 16.752-1.9313 23.781-6.5938zm-334.19 0.0625c4.5566 2.0972-3.5544 4.7443-1.3125 0.28125l0.40625-0.1875 0.90625-0.09375zm-5.2188 0.59375c0.16245-0.00877 0.33103-0.01072 0.5 0 1.5675 2.114 2.1082 6.4918-1.5938 3.8125-2.9156-1.4429-1.3431-3.681 1.0938-3.8125zm9.9062 1.0938c3.28 3.5622 11.548 1.8418 13.5 3.5938-4.2986-1.1744-8.2169 4.3658-11.438 1.0625-1.8495-1.301-6.8702 4.0128-6.2188-1 1.5237-0.96774 4.8017-0.94413 4.1562-3.6562zm-109.97 3.0625c0.44566 0.02354 0.78125 0.38685 0.78125 1.125 0 0.812-0.7288 1.7306-1.5938 2.0625-1.0967 0.4209-1.475 0.09761-1.25-1.0625 0.25657-1.3229 1.3197-2.1642 2.0625-2.125zm243.84 6.8125c0.51754 0 0.03751 0.89999-1.0625 2s-2 2.852-2 3.9062-0.56801 2.1165-1.25 2.3438c-0.72033 0.2401-1.4538 2.915-1.75 6.4062-0.35679 4.2045-0.8755 5.89-1.75 5.5938-1.4491-0.4907-1.7767-10.25-0.34375-10.25 0.50166 0 1.2221-1.8 1.5938-4 0.50423-2.9845 1.1486-4 2.5312-4 1.0192 0 2.1288-0.45001 2.4688-1s1.045-1 1.5625-1zm-238.94 0.5625c-1.1753 0.1373-1.7519 1.0723-1.9062 2.9375-0.11271 1.3617 0.23741 2.5 0.78125 2.5s1-0.6496 1-1.4375 1.0125-1.7627 2.25-2.1562c2.1706-0.6901 2.1794-0.749 0.25-1.4375-0.71138-0.25383-1.3282-0.37415-1.8438-0.40625-0.19334-0.01204-0.36335-0.01961-0.53125 0zm-8.625 1.4375c2.0714 0 1.8891 1.635-0.25 2.25-0.9625 0.2768-2.65 0.80186-3.75 1.1562-1.5197 0.4896-1.4597 0.36825 0.25-0.53125 1.2375-0.651 2.25-1.5653 2.25-2.0312s0.675-0.84376 1.5-0.84375zm379 0c-0.825 0-1.5 0.44999-1.5 1s0.67501 0.99999 1.5 1 1.5-0.45001 1.5-1-0.67499-1-1.5-1zm-9.625 2.9375c-1.1711-0.02947-3.1406 0.16325-5.375 0.5-3.575 0.5389-6.5 1.3131-6.5 1.75s-0.89999 0.81249-2 0.8125-2 0.35701-2 0.8125 2.7 0.40649 6-0.125 6-1.3696 6-1.8438 1.125-0.84376 2.5-0.84375c1.375 0 2.5-0.35545 2.5-0.78125 0-0.15967-0.42232-0.26357-1.125-0.28125zm375.34 2.1875c0.23231-0.04806 0.52775 0.13446 0.90625 0.59375 4.4715 5.8866 3.1462 13.725 5.75 20.312 0.06932 6.0338 0.63195 12.287-1.25 18.125-1.5986 5.5746-0.9988 11.643-4.4375 16.656-1.4916 5.0638-4.2855 9.6536-7.8125 13.594-1.3652 1.4216-3.0665 2.4914-4.9062 3.1875-5.9517 2.9324-11.392-1.2439-13.219-6.875-2.8228-3.546-4.0592-8.2726-4.0938-12.781 2.7402 1.2182 2.089 10.723 6.7188 12.875 3.5969 4.6254 8.6558 2.549 11.531-1.75 3.3378-3.9907 6.8957-8.9588 9.3125-13.031-5.593-3.4377-5.8933 12.396-10.875 4.4688 3.3349-2.7467 6.7642-5.1812 10.781-7.9375 1.6378-6.8058 1.7115-13.86 2.0312-20.812 0.74362-6.088-1.9328-11.878-1.4062-18 0.31369-1.7518-0.28574-8.3655 0.96875-8.625zm-10.188 0.875c0.77696 0.02599 1.512 0.24981 2.0938 0.84375 0.90011 1.6951-1.3206 3.4124-0.40625 5.2812 0.18428 2.1146 2.0539 3.2388 3.125 4.8438 0.85822 2.8473 0.58175 5.8981 0.28125 8.8125-0.20886 1.7836-2.2132 2.6367-2.375 4.375-1.9205 0.16097-4.0714 0.23945-5.3438 2.1562-1.3685 1.8436-3.4381 2.6982-5.625 2-0.9903 1.1306-2.8552 2.6167-4.3125 1.0625-0.98553-2.2155-0.10296-4.7942-0.90625-7.0312-1.7159 0.66245-1.2261 4.088-1.5 5.9062-0.10774 0.91023 0.07005 1.9052-0.34375 2.75-1.7733 2.7246-2.9138-1.5718-2.75-3.125 0.04239-2.3094-0.27212-5.1004 1.5312-6.875 2.0078-2.6332 2.1965-6.1542 3.5312-9.125 0.51837-2.0339 2.7042-3.1698 3.0312-5.25 1.3292-2.5124 3.7184-4.2841 6.125-5.6875 1.1023-0.45226 2.5488-0.98082 3.8438-0.9375zm-715.03 1c0.55 0 1 0.67499 1 1.5 0 0.825-0.45 1.5-1 1.5s-1-0.67501-1-1.5 0.45-1.5 1-1.5zm328.78 0.1875c-0.60745 0.02709-1.3633 0.1078-2.3125 0.25-2.7322 0.4093-5.1925 1.1169-5.4688 1.5625s-2.1888 1.1133-4.25 1.5c-2.1936 0.4115-3.75 1.2809-3.75 2.0938 0 1.5471 1.6354 1.9026 2.1562 0.46875 0.18333-0.5048 3.2688-1.4988 6.8438-2.2188 7.2553-1.461 11.033-3.8459 6.7812-3.6562zm-332.78 0.8125c0.55 0 1 0.67499 1 1.5 0 0.825-0.45 1.5-1 1.5s-1-0.67501-1-1.5 0.45-1.5 1-1.5zm719.66 6.0312c-0.53382 0.0456-1.2357 0.23325-2.0938 0.5625-0.86999 0.3338-1.5625 1.4588-1.5625 2.5s0.45001 1.9062 1 1.9062 1-0.67501 1-1.5 0.67501-1.5 1.5-1.5 1.5-0.45001 1.5-1c0-0.71319-0.45404-1.0448-1.3438-0.96875zm-721.81 0.875c0.21159-0.03748 0.4769 0.07065 0.75 0.34375 0.32362 0.3236 0.39475 1.4007 0.15625 2.4062-0.41435 1.747-0.47507 1.7447-1.2188 0.03125-0.58822-1.3552-0.32227-2.6688 0.3125-2.7812zm5.75 0.09375c0.76723 0 1.4062 0.67499 1.4062 1.5 0 0.825-0.45 1.5-1 1.5s-1 0.89999-1 2 0.40958 2 0.9375 2 1.5284 1.8 2.1875 4 1.5683 4 2.0312 4 0.84375 0.56585 0.84375 1.2812c0 1.758 2.3181 6.6778 3.1562 6.6875 0.36984 0.0043 1.2306 1.7027 1.9062 3.75 1.4139 4.2842 3.103 6.2812 5.3438 6.2812 0.90476 0 1.5938 0.84849 1.5938 2 0 1.1-0.3375 1.9748-0.75 1.9375-2.3421-0.2113-5.3671-2.605-6.4688-5.0938-0.69535-1.5709-1.7858-2.8438-2.4062-2.8438s-1.4295-1.8-1.7812-4-1.0004-4-1.4688-4-1.4277-2.683-2.125-5.9688c-0.823-3.8782-1.838-6.1609-2.9062-6.5-2.128-0.6754-1.6686-8.5313 0.5-8.5312zm17.688 0.0625c0.05608-0.02855 0.12299-0.00203 0.1875 0.0625 0.25805 0.258 0.20501 2.1226-0.125 4.1562-0.67674 4.1703-2.3438 5.0424-2.3438 1.2188 0-1.375 0.45-2.5 1-2.5s1-0.7708 1-1.6875c0-0.68745 0.113-1.1644 0.28125-1.25zm-13.312 0.15625c0.55303-0.05457 1.0312 0.43923 1.0312 1.5938 0 1.087-0.69961 2.2314-1.5625 2.5625-1.174 0.4505-1.4886 0.05879-1.25-1.5625 0.23068-1.5673 1.0702-2.5236 1.7812-2.5938zm3.5312 0.78125c0.825 0 1.5 0.67499 1.5 1.5 0 0.825-0.675 1.5-1.5 1.5s-1.5-0.67501-1.5-1.5 0.675-1.5 1.5-1.5zm224.5 0c-1.1 0-2 0.44999-2 1s-0.67499 0.99999-1.5 1-1.5 0.88889-1.5 2c0 1.3333 0.66668 2 2 2 1.1 0 2-0.44616 2-0.96875s2.5875-1.0983 5.75-1.2812c5.75-0.3329 5.75-0.31146 1.5-1.1562-2.3375-0.4647-4.25-1.2391-4.25-1.7188s-0.89999-0.87501-2-0.875zm-211.41 2c1.0545 0 1.3983 0.5245 1 1.5625-0.33385 0.87-0.59375 2.67-0.59375 4s-0.45 2.4375-1 2.4375-1-1.8-1-4c0-3.0072 0.3856-4 1.5938-4zm9.5 0.03125c0.142-0.02973 0.25707 0.00588 0.34375 0.09375 0.20025 0.2029 0.1343 1.6125-0.15625 3.125-0.55617 2.8952-3.2812 3.8526-3.2812 1.1562 0-1.3689 2.0998-4.1669 3.0938-4.375zm-5.3438 0.5625c0.78271-0.0443 1.0078 1.0996 0.90625 4.4688-0.08168 2.7107-0.15625 4.8866-0.15625 4.8438s-0.5625-0.28509-1.25-0.5625c-1.7438-0.7036-1.6113-8.0092 0.15625-8.6875 0.13657-0.0524 0.23193-0.05617 0.34375-0.0625zm9.3438 0.40625c0.66998 0 0.89302 0.89999 0.53125 2.25-0.33164 1.2375-0.61748 2.8125-0.625 3.5s-0.675 1.25-1.5 1.25c-0.83333 0-1.5-0.88891-1.5-2 0-1.1 0.45-2 1-2s1-0.67501 1-1.5 0.47961-1.5 1.0938-1.5zm182.78 0.53125c0.35827 0.02797 0.72618 0.25178 1.0938 0.71875 0.34721 2.7909 3.9146 2.9442 5 5.25 1.3978 9.2554 6.3912 18.067 14.094 23.5 2.2708 0.74768 3.6634 4.0266 1.7188 5.8125-1.8104 2.4218-4.7697-0.31736-3.8125-2.7188-0.97578-1.6402-4.4698-2.405-5.2188-4.9062-0.09473-2.4746-3.0435-0.92164-2.4062 0.875 1.4636 3.1353-3.1571 2.8974-4.9062 3.8125-2.7413 0.12586-4.8137 2.883-4.625 5.5312-2.0768 1.8433-1.5685 5.5887 0.75 7 1.0815 0.82511 0.71257 2.6367-0.3125 3.3438-2.7757 0.82096-3.4833-3.4731-4.0938-5.4375-0.86752-3.173-0.98416-7.0867 1.5938-9.5312 3.0462-0.53105 1.5642-5.9994-1.3125-4.5-1.7852 1.9656-3.1415 4.2841-4.25 6.6875-1.4254 2.2949-0.62077 5.0365 0.03125 7.4375 1.4369 2.5487-2.4498 4.3094-3.7812 1.9062-1.0068-2.6073-0.81052-5.5019-1-8.25-0.11836-3.0909 3.2601-4.455 4.375-7 0.99952-2.515-1.5408-4.503-1.7188-6.9062-0.06782-3.3501 3.0346-5.3306 4.9062-7.6875 2.2223-2.8807 1.6433-6.7535 1.875-10.156-0.81597-1.5137 0.44751-4.9024 2-4.7812zm-178.88 0.46875c1.1484 0 1.2145 0.61739 0.375 3.75-0.67087 2.5034-3.375 3.1041-3.375 0.75 0-0.825 0.45-1.5 1-1.5s1-0.67501 1-1.5 0.45-1.5 1-1.5zm5.8438 2.0625c1.0375 0.0498 1.1956 0.27524 0.40625 0.59375-0.6875 0.2774-1.25 1.322-1.25 2.3438s-0.45 2.1601-1 2.5-1-0.06249-1-0.875c0-2.7249 1.187-4.6421 2.8438-4.5625zm192.59 0.1875c-1.687 0.02109-2.0975 0.23843-1.4375 0.6875 1.1806 0.8033 0.86118 1.0226-1.5 1.0625-3 0.0508-3 0.07089-0.5 1.5 2.3699 1.3548 2.3753 1.4351 0.34375 1.4688-1.1787 0.0195-2.4167 0.72515-2.75 1.5938-0.49638 1.2935-0.06597 1.4599 2.3125 0.9375 1.5971-0.3508 3.1448-0.22359 3.4375 0.25s-1.4659 0.76991-3.9062 0.6875-4.4375 0.30585-4.4375 0.84375c0 0.5592 1.4987 0.73104 3.5 0.40625 3.2245-0.5232 4.6984 0.43725 2.625 1.7188-0.48125 0.2974-0.87499 1.6645-0.875 3.0312 0 2.485-0.00343 2.498 2.875-0.21875 1.5831-1.4942 3.3269-2.775 3.875-2.8438s1.225-0.23751 1.5-0.375c0.63996-0.32 2.2201-0.71501 3.5-0.875 0.55-0.0687 1-1.3338 1-2.7812 0-2.493-0.21071-2.6021-4-2.0938-2.2 0.2951-4 0.37156-4 0.15625 0-0.748 7.2488-3.4063 9.2812-3.4062 4.8622 0 0.34074-1.1013-6.4062-1.5625-1.9497-0.13331-3.4253-0.20015-4.4375-0.1875zm-188.59 0.75c0.63733-0.01312 1.1562 0.47013 1.1562 1.5 0 0.825-0.37778 1.5-0.84375 1.5s-1.3407 1.0125-1.9375 2.25c-1.2082 2.5052-1.5747 0.6603-0.59375-3 0.37736-1.4081 1.3993-2.2331 2.2188-2.25zm661.16 0c-0.55 0-0.99999 0.9301-1 2.0625s0.45001 1.7774 1 1.4375c1.2984-0.8024 1.2984-3.5 0-3.5zm-657 0.1875c0.58924-0.01148 1 0.65212 1 1.7188 0 1.1458-0.45 2.0938-1 2.0938s-1 1.575-1 3.5 0.45 3.5 1 3.5 1 0.45 1 1-0.46047 0.99999-1 1c-2.3807 0-2.6143-11.973-0.25-12.75 0.09143-0.03004 0.16582-0.06086 0.25-0.0625zm3.9688 0.5c0.06385-0.01828 0.12602-0.01146 0.1875 0 0.81975 0.15273 1.4548 2.8882 1.4062 7.375-0.05991 5.5388 0.30716 7.3456 1.625 8.3125 0.92604 0.6794 1.9928 2.4771 2.375 4s1.3083 3.023 2.0625 3.3125 1.375 1.14 1.375 1.9062c0 2.4172-1.7755 1.5256-3.1562-1.5938-0.73036-1.65-1.6381-3-2-3s-1.1123-1.35-1.6875-3-1.4649-3-1.9688-3c-1.1959 0-2.37-8.5009-1.5938-11.594 0.43071-1.7161 0.92806-2.5908 1.375-2.7188zm-38.562 0.8125c0.26492-0.18325 0.70665 0.9453 1.0625 2.75 0.40668 2.0625 1.1362 3.75 1.625 3.75s0.90625 0.67499 0.90625 1.5c0 0.825-0.43995 1.5-0.96875 1.5-1.1292 0-3.3467-7.6286-2.7188-9.3438 0.02959-0.08082 0.0559-0.13007 0.09375-0.15625zm45.125 0.375c0.09148-0.01816-0.01001 0.975-0.28125 2.625-0.36164 2.2-0.60018 5.4625-0.53125 7.25s0.0359 3.2084-0.0625 3.1875c-2.6583-0.5652-3.8437-10.938-1.25-10.938 0.78467 0 1.6748-0.7875 1.9688-1.75 0.07349-0.24062 0.12576-0.36895 0.15625-0.375zm660.56 1.125c1.5278 0 1.0268 9.0045-0.59375 10.625-0.825 0.825-1.5 2.3768-1.5 3.4375s-0.56249 1.9553-1.25 2c-5.9854 0.389-13.103 2.134-14.531 3.5625-0.74508 0.7451-1.9852 1.375-2.7188 1.375-1.0239 0-1.1989 1.3938-0.78125 6 0.29923 3.3 0.35344 6 0.09375 6-1.2883 0-1.8125-1.7874-1.8125-6.1875 0-2.6583-0.44999-4.8125-1-4.8125s-0.99999-1.1315-1-2.5c0-1.7896 0.49137-2.4133 1.75-2.25 3.0476 0.3955 14.25-1.3268 14.25-2.1875 0-0.454 1.2392-1.0666 2.7812-1.375 2.5502-0.5101 2.9382-1.1543 4.125-7.125 0.71762-3.6104 1.6972-6.5625 2.1875-6.5625zm-655.28 0.09375c1.1791 0.05662 1.6135 1.0084 0.3125 1.8125-2.0635 1.2753-2.7386 9.1602-0.90625 10.5 0.83647 0.6117 1.851 2.5895 2.25 4.4062s1.3519 3.547 2.125 3.8438 1.4062 1.1713 1.4062 1.9375-0.36356 1.4062-0.78125 1.4062c-1.0701 0-3.2188-3.6884-3.2188-5.5 0-0.8325-0.3375-1.527-0.75-1.5312-0.99621-0.0104-3.25-4.9252-3.25-7.0938 0-0.9445-0.5625-1.9916-1.25-2.3125-1-0.4666-1-0.68965 0-1.1562 0.6875-0.3209 1.25-1.6848 1.25-3.0312s0.68254-2.7056 1.5312-3.0312c0.24898-0.09555 0.49564-0.18263 0.71875-0.21875 0.19522-0.03161 0.39406-0.03934 0.5625-0.03125zm-69.812 0.90625c0.55 0 1 1.125 1 2.5s0.45 2.5 1 2.5 1 0.67499 1 1.5c0 2.1175-1.7391 1.86-2.9688-0.4375-1.3189-2.4645-1.3359-6.0625-0.03125-6.0625zm74.469 0c2.012 0 1.9445 2.4305-0.125 4.5-1.7383 1.7383-2.1162 7.389-0.5625 8.4062 0.94087 0.6161 3.2188 4.5269 3.2188 5.5312 0 0.3111-0.45 0.56249-1 0.5625s-1-0.52945-1-1.1562-0.6785-1.6394-1.5-2.25c-3.4575-2.57-2.6482-15.594 0.96875-15.594zm-39.25 0.03125c0.12097 0.00737 0.3603 0.59374 0.8125 1.7188 0.49742 1.2375 1.2646 2.25 1.7188 2.25s1.319 1.8 1.9062 4 0.66109 4 0.1875 4-0.84375-0.67501-0.84375-1.5-0.45-1.5-1-1.5-1-0.8699-1-1.9375-0.45-2.2226-1-2.5625-0.97237-1.6075-0.9375-2.8125c0.03169-1.0955 0.03528-1.6636 0.15625-1.6562zm-11.562 0.3125c0.09615 0.01556 0.21383 0.07596 0.34375 0.15625 0.55 0.3399 1 1.495 1 2.5625s0.38915 1.9375 0.875 1.9375 1.1186 0.89999 1.4062 2c0.58827 2.2496 0.58943 2.2282-0.8125 1.2188-2.0317-1.4629-4.2547-8.1084-2.8125-7.875zm-54.562 0.5625c1.1373 0.07351 2.4939 1.0803 3.3125 1.6875 7.1487 2.0716 14.868 2.2996 21.656 5.5938 2.4088 0.66816 2.1188 3.4518 2.875 5.3125 1.4225 4.8626 2.6375 10.179 6.4375 13.812 0.37335 1.204-2.5285 0.62477-3 0.15625-2.8547-4.1086-5.0434-8.6075-7.0938-13.156-0.69542-1.9564-1.595-4.4854-4.125-4.375-1.8302-0.01726-3.6709-0.14043-5.4062-0.78125-4.4947-0.71199-9.1989-1.1699-13.188-3.5625-1.2465-0.90743-3.2126-1.6948-3.0938-3.5312 0.3395-0.90531 0.94263-1.2004 1.625-1.1562zm116.41 0.09375c1.6742 0 2.0623 2.625 0.46875 3.1562-1.7264 0.5754-2.4089 10.246-0.84375 11.938 2.0535 2.2189 3.875 5.6716 3.875 7.375 0 0.8325 0.45 1.5312 1 1.5312s1 0.67499 1 1.5c0 2.6461-1.6016 1.5952-3-1.9688-0.74633-1.9021-1.9562-3.6881-2.6875-3.9688s-1.3125-1.1851-1.3125-2-0.7875-1.9394-1.75-2.5c-0.97121-0.5657-1.1937-1.0144-0.5-1.0312 1.4721-0.0358 1.7191-3.0313 0.25-3.0312-1.6408 0-1.1847-6.7285 0.5-7.375 0.825-0.3166 1.5-1.2514 1.5-2.0938s0.675-1.5312 1.5-1.5312zm-5.0938 0.15625c0.04953-0.00251 0.07099 0.0085 0.09375 0.03125 0.58076 0.5808-1.9636 7.8125-2.75 7.8125-0.41542 0-0.75 0.67499-0.75 1.5 0 0.825 0.38916 1.5 0.875 1.5s1.1186 0.89999 1.4062 2c0.63059 2.4114 0.33715 2.4622-1.7188 0.40625-2.3864-2.3864-2.0599-9.5313 0.53125-11.75 1.0082-0.86328 1.9658-1.4824 2.3125-1.5zm-64.125 0.5c0.27005-0.05591 0.69493 0.16366 1.2188 0.6875 0.825 0.825 1.5 2.1982 1.5 3.0625 0 2.0377-1.623 2.0411-2.4062 0-0.84568-2.2038-0.90661-3.627-0.3125-3.75zm13.094 1.3438c0.85275 0 1.5526 1.582 1.9062 4.2188 0.31211 2.3269 0.39594 4.4166 0.15625 4.6562s-0.4375-0.10034-0.4375-0.78125-0.675-1.925-1.5-2.75c-1.8759-1.8759-1.9548-5.3438-0.125-5.3438zm221.78 0c-1.433 0-2.1942 2.6687-2.6562 9.4062-0.41719 6.0827-0.39274 6.0937 0.5625 1.0938 0.52539-2.75 1.0581-5.6966 1.2188-6.5312s0.64357-2.0721 1.0625-2.75 0.33612-1.2188-0.1875-1.2188zm-159.22 0.1875c0.92657-0.0688 0.73588 1.1709-0.125 4.5625-1.1738 4.6246-0.41569 10.758 1.4688 11.969 1.4084 0.9048 3.7188 4.7769 3.7188 6.25 0 0.5575-0.45 1.0312-1 1.0312s-1-0.45001-1-1-0.7875-1.8769-1.75-2.9375c-3.7981-4.1851-4.2028-5.1191-4.8438-11.375-0.61535-6.0061-0.52085-6.5892 1.5312-7.6875 0.91833-0.49147 1.5788-0.78123 2-0.8125zm6.9062 0.8125c1.7114 0 1.7814 0.37 0.8125 4-0.58722 2.2-1.4386 4-1.875 4s-0.78125 0.89999-0.78125 2 0.45 2 1 2 1 0.66751 1 1.5c0 1.9156 2.1126 5.7338 3.75 6.7812 0.6875 0.4398 1.25 1.7032 1.25 2.7812s0.9 2.7144 2 3.6562 2 2.2972 2 3 0.60885 1.2812 1.375 1.2812 1.6845 0.72129 2.0312 1.625 0.52543 1.7462 0.375 1.875c-0.73932 0.6329-8.7812-8.3508-8.7812-9.8125 0-0.9272-0.38669-1.6875-0.84375-1.6875s-1.4696-1.2375-2.25-2.75-1.9902-3.2-2.6875-3.75c-3.5218-2.778-2.1668-16.5 1.625-16.5zm-66.062 0.46875c0.17162-0.00593 0.36356 0.03668 0.59375 0.125 0.76912 0.2951 1.9319 2.5892 2.5625 5.0938s0.95247 4.735 0.71875 4.9688-0.72555-0.78299-1.0938-2.25-1.3271-3.296-2.125-4.0938c-1.6255-1.6255-1.8576-3.8022-0.65625-3.8438zm73.469 0.125c0.74279-6.6e-4 1.2439 0.56658 0.9375 1.7812-0.29453 1.1678-0.95576 2.4221-1.5 2.7812-1.772 1.1691-1.4019 9.8589 0.46875 10.906 0.91952 0.5148 1.9821 2.2907 2.3438 3.9375s1.0562 3 1.5625 3 0.9375 0.44999 0.9375 1c0 1.981-2.0701 0.94599-3-1.5-0.52277-1.375-1.4051-2.5-1.9688-2.5s-1.0312-0.67501-1.0312-1.5-0.45-1.5-1-1.5-1-1.35-1-3-0.45-3-1-3-1-1.35-1-3 0.42458-3 0.9375-3 1.201-0.86565 1.5312-1.9062c0.5024-1.5829 1.8262-2.4992 2.7812-2.5zm6.75 0.40625c1.1111 0 2 0.6667 2 1.5 0 0.825-0.36647 1.5-0.8125 1.5-2.3587 0-3.5099 10.34-1.3438 12.094 1.176 0.9522 2.1562 2.4382 2.1562 3.3125 0 2.4123-2.7635 1.9039-3.5625-0.65625-0.3862-1.2375-1.1491-2.5289-1.6875-2.875-1.4411-0.9264-1.3852-11.174 0.0625-11.656 0.65658-0.2189 1.1875-1.0334 1.1875-1.8125s0.9-1.4062 2-1.4062zm-64.406 0.5c0.02631-0.00293 0.06748 0.07813 0.125 0.25 0.23009 0.6875 0.83408 1.25 1.3438 1.25s0.9375 0.89999 0.9375 2 0.45 2 1 2 1 1.125 1 2.5 0.45 2.5 1 2.5 1 0.62705 1 1.4062 0.5625 1.6294 1.25 1.875 1.0259 0.69471 0.75 1c-1.0176 1.1263-3.7282-1.8914-4.9062-5.4688-0.66753-2.027-1.5791-3.827-2.0312-4s-1.0246-1.6625-1.2812-3.3125c-0.19249-1.2375-0.26642-1.9912-0.1875-2zm196.16 0.625c-0.14598 0.02684-0.35721 0.2779-0.65625 0.75-0.50849 0.8028-1.4186 1.0497-2.1562 0.59375-0.87781-0.5425-0.9983-0.37616-0.4375 0.53125 0.5039 0.8153 0.39853 1.057-0.25 0.65625-1.1659-0.7205-2.6054 0.83814-3.5938 3.8438-0.64766 1.9695-0.63581 1.974 0.84375 0.0625 0.82635-1.0676 1.5-2.4009 1.5-2.9375s0.27768-0.69115 0.625-0.34375c0.90992 0.9099 4.3619-1.1233 4.3438-2.5625-0.00524-0.41615-0.07277-0.62059-0.21875-0.59375zm-125.72 0.875c2.2652 0 2.408 1.0712 0.75 5.6562-1.0528 2.9115-4.7988 4.9499-4.7812 2.5938 0.02646-3.5595 2.314-8.25 4.0312-8.25zm314.78 0.65625c7.1953-0.02214 13.693 1.0433 18.844 3.4062 16.489 7.5654 21.533 46.05 23.125 62.031 0.81807 8.2144-0.3837 17.525-3.6875 24.844-1.7832 3.9499 0.18215 4.6676 2.4062 1.5625 4.1378-5.7768 12.881-7.8853 18.094-11.562 7.3432-5.1805 8.275 4.8191 3.4688 7.9062-7.1743 4.6082-14.893 4.7006-22.75 8-2.9314 1.231-6.7186 1.2172-8.0938-1.875-3.4213-7.6929 3.154-16.552 2.625-24.5-1.1016-16.551 0.06455-33.336-7.625-47.812-19.592-36.885-84.42-6.7088-99.438 13.875-1.9618 2.6889 4.2641-9.6942 7.375-12.312 16.241-13.669 44.07-23.496 65.656-23.562zm-306.59 0.34375c1.614 0 1.8753 0.43419 1.3125 2.25-0.38355 1.2375-0.95529 3.2625-1.25 4.5s-0.92036 2.25-1.4062 2.25-0.875 0.89999-0.875 2 0.60963 2 1.375 2 1.6914 1.209 2.0625 2.6875 1.3704 3.1922 2.2188 3.8125 1.3848 1.9756 1.1875 3c-0.37433 1.9434-3.8438-0.3167-3.8438-2.5 0-1.5311-3.8917 0.17064-4.2188 1.8438-0.17709 0.9061-0.27176-2.6188-0.1875-7.8438 0.18156-11.259 0.89777-14 3.625-14zm-80.969 0.0625c1.208-0.0545 1.75 0.66745 1.75 2.3438 0 1.3357 0.675 3.1125 1.5 3.9375s1.5 1.7482 1.5 2.0625-0.46764 0.59374-1.0312 0.59375c-1.0706 0-2.9688-4.1675-2.9688-6.5 0-0.7433-0.5625-1.5664-1.25-1.8438-0.74674-0.3013-0.54544-0.54664 0.5-0.59375zm-74.281 1.2188c0.92809 0.06354 1.53 1.4011 2.4375 1.7188 5.3491 1.9755 11.109 1.1442 16.188 3.0312 1.5404 3.359 1.705 7.2967 4.4062 9.9688-0.18433 0.53914-0.80621 0.70448-1.3125 0.78125-7.3398 0.09859-13.416-2.2111-19.938-4.8125-1.3531-0.32049-2.2355-1.9765-1.625-3.25 4.4868 1.4177 6.095 0.03256 0.625-4.7188-0.68339-0.64554-1.8242-1.6301-1.2188-2.6562 0.14804-0.05061 0.30492-0.07158 0.4375-0.0625zm170.09 1.7188c2.3506 0 2.4879 1.2934 0.34375 3.4375-1.8061 1.8061-2.353 8.3335-0.78125 9.375 0.56661 0.3755 1.6598 2.15 2.4375 3.9375s1.7718 3.25 2.1875 3.25 0.75 0.89999 0.75 2c0 2.9311-1.5741 2.4294-2.9688-0.9375-0.66708-1.6105-1.8264-3.155-2.5625-3.4375s-1.6553-2.5555-2.0312-5.0625-1.075-4.5625-1.5625-4.5625-0.875-0.90001-0.875-2 0.42458-2 0.9375-2 1.2134-0.90001 1.5625-2 1.4996-2 2.5625-2zm-77.781 1.1562c0.08496 0.02267 0.21999 0.38104 0.40625 1.0938 0.25152 0.9625 0.89922 1.75 1.4375 1.75s1.4561 1.35 2.0312 3 1.3734 3 1.7812 3 1.2786 1.179 1.9375 2.625 1.0643 2.7314 0.90625 2.8438c-0.59087 0.4195-3.6136-3.3433-4.2188-5.25-0.34562-1.089-1.5101-3.0005-2.5938-4.25s-1.9388-2.9967-1.875-3.875c0.04725-0.6504 0.10254-0.96017 0.1875-0.9375zm-46.25 0.03125c0.53982-0.03167 0.96875 0.45671 0.96875 1.2188 0 0.8708-0.72292 1.5937-1.5938 1.5938-1.7659 0-1.448-2.1632 0.40625-2.7812 0.08164-0.02721 0.14163-0.02673 0.21875-0.03125zm666.81 0.625c2.01 0.03117-1.5649 7.2725-3.8438 7.9062-54.03 27.123-120.76 47.173-177.69 72.906-0.22021 1.1183-1.5828 1.6561-2.5312 1.0625-0.48903-4.5608 3.8464-12.201 10.156-12.344 57.669-22.609 115.45-44.32 172.16-68.719 0.8002-0.57626 1.3778-0.81827 1.75-0.8125zm-508.88 0.1875c0.16102-0.03093 0.3231 0.02166 0.46875 0.15625 0.61274 0.5663-0.985 4.3912-2.4375 5.8438-2.7574 2.7574-2.7802 10.359-0.03125 13 1.341 1.2886 3.0313 5.1554 3.0312 6.9688 0 1.1075 0.45001 2.0312 1 2.0312s1 0.44999 1 1c0 2.1663-1.8197 0.82709-3.0625-2.25-0.72192-1.7875-1.9052-3.6226-2.625-4.0625s-1.3125-1.4171-1.3125-2.1875-0.63455-1.779-1.4062-2.2188c-4.5817-2.6113-2.0636-16.281 3-16.281 0.67546 0 1.442-0.56251 1.6875-1.25 0.15346-0.42969 0.41914-0.69845 0.6875-0.75zm-119.72 0.625c0.36018-0.05679 1.0752 0.44929 2.1562 1.5 1.7267 1.6783 1.7493 1.875 0.21875 1.875-0.93849 0-1.9556-0.71379-2.2812-1.5625-0.44186-1.1514-0.45393-1.7557-0.09375-1.8125zm210.69 5.2812c1.1834-0.06217 2.0625 0.14721 2.0625 0.71875 0 1.6635-4.5047 4.2133-8.5 4.8125-2.4475 0.367-4.711 1.1068-5.0312 1.625-0.7169 1.16-6.4687 1.241-6.4688 0.09375 0-0.4556 2.2314-1.3369 4.9688-1.9688s5.8874-2.0749 7-3.1875c1.1523-1.1522 3.9964-1.9901 5.9688-2.0938zm-301.06 0.3125c2.9926 0.04622 5.6795 6.7275 10.188 5.7812 1.0732-0.38439 3.492 0.48571 2.375 1.8438-8.8646 2.7469-18.532 2.9945-26.844 7.75l-0.09375 0.1875c-0.13264 1.8021-3.2181 1.0114-2.4062-0.59375 4.828-4.3182 13.021-4.5505 18.938-6.5312 1.1644-0.22474 2.9584-0.72684 2.875-2.1875-2.1202-2.3752-4.5434-0.33349-6.8438 0.8125-0.00802-2.4806 0.4464-4.9487 1.8125-7.0625zm38.312 0.0625c0.24225-0.13313 0.79687 0.49606 2.0625 1.9062 1.2375 1.3788 3.0375 2.7855 4 3.125s1.75 1.2502 1.75 2.0312c0 0.8236 1.4325 1.6922 3.4062 2.0625 1.8719 0.3512 3.6579 1.315 3.9688 2.125 0.91413 2.3822-6.2728 1.3002-7.6875-1.1562-0.43983-0.7636-1.3398-1.3968-2-1.4062-1.9874-0.0286-5.6875-4.6092-5.6875-7.0312 0-0.99076-9.2e-4 -1.5527 0.1875-1.6562zm76.5 0.25c0.03805-0.01197 0.07291-0.00261 0.125 0 0.25004 0.01254 0.6746 0.17536 1.2812 0.5 1.046 0.5599 1.9062 1.4693 1.9062 2 0 1.8218-2.7628 0.95114-3.2812-1.0312-0.24118-0.9223-0.2976-1.385-0.03125-1.4688zm36.969 0.5c0.67493-0.15651 1.7472 0.74787 2.5312 2.4688 0.6265 1.375 1.507 2.5 1.9688 2.5s0.84375 0.44999 0.84375 1c0 1.8415-2.8572 1.0251-3.5-1-0.34913-1.1-1.0496-2-1.5625-2s-0.9375-0.67501-0.9375-1.5c0-0.88466 0.25129-1.3748 0.65625-1.4688zm590.84 0.96875c0.825 0 1.5 0.44999 1.5 1s-0.67499 0.99999-1.5 1c-0.825 0-1.5-0.45001-1.5-1s0.67501-1 1.5-1zm-503.78 0.125c0.50899-0.01542 0.21304 2.5447-0.78125 6.125-1.3654 4.9167-3.9375 5.0598-3.9375 0.21875 0-2.4506 0.53561-3.7395 1.75-4.1875 0.9625-0.3551 2.0647-1.1287 2.4688-1.7188 0.20262-0.29591 0.38254-0.43394 0.5-0.4375zm-175.16 0.34375c0.17046-0.00307 0.3734 0.01964 0.59375 0.0625 0.88617 4.1432 3.8901 1.0199 6.0938 4.3438 4.0608-1.0964 9.7913 9.4912 11.656 2.3438 0.30815 6.4426 11.284 1.0721 12.594 6.4062 3.92-3.0045 4.949 2.361 9.6562 1.75 6.8544 3.4497 15.202 2.8606 21.844 6.625 2.1566-6.1469 3.4934 2.6483 6.7188-0.9375 6.9437 4.9878 16.227 5.7301 24.844 6.0625 7.55-0.69194 14.848 7.1562 22.375 1.6562 1.5376 1.8184 7.2009 4.3849 11.844 3 2.9651 4.2505 6.4194-1.1741 10 0.09375-3.3718 6.5471 4.3028-0.11408 6.7812 0.875-1.9022 3.9637 1.8058 2.4333 5.125 3.2188 10.566 2.4001 21.387 2.9941 32 5.125 5.8589 3.8764 19.961-2.7237 20.062 6.75-0.36134 0.90625-0.81865 1.8137-1.5312 2.5-2.6851-5.0485-12.2-4.0926-18.156-6.1875-9.933-1.4398-19.938-2.0718-29.75-4.3125-12.412-1.2519-24.491-4.5365-36.938-5.5938-9.8321-2.4414-19.954-3.29-29.969-4.7188-8.7372-2.4446-17.728-4.0009-26.5-6.1875-9.3098-2.7367-18.796-4.5979-28.031-7.5312-8.3801-2.9268-17.045-4.2813-25.531-6.8125-2.2942-2.1812-14.503-1.6264-9.8438-5.25 4.1756 1.6117 1.5056-3.2352 4.0625-3.2812zm48.719 1.625c0.97977-0.0638 2.0493 0.5888 2.375 1.4375s0.31169 1.8134-0.03125 2.1562-0.625-0.09245-0.625-0.96875-0.7875-1.7797-1.75-2.0312c-1.6401-0.4286-1.6382-0.48506 0.03125-0.59375zm630.97 3.9688c1.1096-0.0501 1.75 0.66929 1.75 1.9375 0 1.1-0.22499 2-0.5 2s-0.49999-0.6583-0.5-1.4375-0.56249-1.6289-1.25-1.9062c-0.74674-0.3013-0.54543-0.54664 0.5-0.59375zm-441.62 0.03125c0.25723 0 0.05674 0.63244-0.625 1.9062-0.5887 1.1-1.5716 2-2.1875 2s-0.30798-0.90001 0.6875-2c1.1528-1.2738 1.8678-1.9062 2.125-1.9062zm-5.0625 0.15625c0.13941-0.00858 0.30607 0.01899 0.46875 0.03125 1.7593 0.1325 1.783 0.24686 0.28125 1.9062-1.9802 2.1881-1.855 2.215-2.0312-0.125-0.08738-1.1599 0.30539-1.7525 1.2812-1.8125zm-276.84 1.0625c5.545 1.2605 10.216 2.6729 16.5 2.9062 6.4242-0.60471 12.169 2.66 16.719 6.7812 6.8779 4.2128 0.4714 7.2795-5.1562 5.5938-6.6681-1.948-13.457-3.217-20.438-3.3438-5.9968 1.3428-8.7304-2.9446-9.5625-8.1875-7.2416-0.98128-4.3372 11.584 1.6875 9.375 5.4049 1.9275 11.246 2.3942 16.969 2.875 5.5361-0.00786 10.612 2.4489 16.094 2.6562 6.5974 0.57084 12.973-0.93466 19.344-2.3438 6.8633-0.10587 12.664 4.778 19.375 6.0312 6.8234 1.2808 13.268 4.0014 19.844 6.25 4.3788 3.5344-6.7224 1.7149-7.6562 4.125 1.7241 3.6361 9.7267 3.8662 13.938 3.4062 7.3948-2.9974 11.292 6.701 18.812 3.75 2.1076-0.43724 11.1-2.0049 8.9688 0.65625-5.1868 3.8893-11.686 3.2605-17.875 4.625-4.7604 1.205 5.0698 0.44734-0.78125 1.9688-3.6031 1.4778-7.4882 1.3832-11.281 1.6562-5.1986-0.9746-7.3513-6.9727-11.656-9.625-7.753-6.9778-18.612-6.727-28.219-8.6875-5.6164-2.314-11.713-2.4713-17.562-3.875-7.5755-3.3726-16.033-4.036-24.219-3.4062 2.7373-0.25513-2.0475-7.4714-4.0625-3.0625-4.3997 6.2147-11.22-0.99396-17.094-0.40625-5.1517-4.0322 2.1739-1.0329 4.9062-0.375 2.109 0.21589 12.166 2.1556 7.4688-0.4375-4.8535-1.357-9.6479-3.4748-14.781-3.25-3.8496-0.31404-0.75465 1.4722-1.9688 2.375-5.4981-1.8492-11.54-0.82986-16.719-3.5625-3.848-4.6719-6.8379 2.5026-2.8438 3.8125 5.469-3.1442 12.226 0.17035 17.625 2.3125 3.9297 5.2734 12.081 1.2058 16.375 5.6875-11.317 1.4243-22.362-2.3239-33.094-5.375-7.0422-0.15909-6.5087-7.6314-1.5-10.469 5.8354-3.1048 12.606-3.7992 18.781-6.125 5.4508 0.46345 8.2411-3.0363 13.062-4.3125zm67.781 0.6875c0.825 0 1.5 0.44999 1.5 1s-0.675 0.99999-1.5 1-1.5-0.45001-1.5-1 0.675-1 1.5-1zm40 0c0.825 0 1.5 0.59376 1.5 1.3438s1.175 2.55 2.625 4c3.8346 3.8345 2.1425 3.2471-2.0625-0.71875-3.9176-3.6947-4.3279-4.625-2.0625-4.625zm4.4062 0.03125c0.06379-0.00203 0.12284 0.01652 0.1875 0.03125 0.25864 0.05893 0.49621 0.24075 0.6875 0.53125 0.3826 0.5811 1.6188 1.5637 2.7188 2.1875 1.3849 0.7853 1.5387 1.1573 0.5 1.1562-2.0504-0.0019-5.5284-2.7528-4.625-3.6562 0.15085-0.15082 0.33987-0.2439 0.53125-0.25zm87.844 0.4375c1.2895-0.12821 3.1723 2.2585 3.2188 4.6562 0.01749 0.9037 0.6282 1.9009 1.375 2.1875s1.6579 1.9146 2 3.625c0.38985 1.9492 2.665 5.122 6.125 8.5 3.0361 2.9642 5.5313 5.7745 5.5312 6.25 0 2.7567 6.4447 5.4784 7.25 3.0625 0.29746-0.8923 0.90437-0.75179 2.1562 0.5 1.6548 1.6548 1.5382 1.7353-2.0938 1.625-5.4124-0.1643-7.3125-0.82451-7.3125-2.5 0-0.8019-0.67499-1.7146-1.5-2.0312-0.825-0.3165-1.5-1.2326-1.5-2.0312s-0.44999-1.1524-1-0.8125-0.99999-0.305-1-1.4375c0-1.1635-0.65233-2.0625-1.5-2.0625-0.825 0-1.5-0.45001-1.5-1s-0.59017-1-1.3125-1-1.9322-1.575-2.6875-3.5c-0.75531-1.925-1.6719-3.5-2.0312-3.5s-1.2509-1.7937-1.9688-3.9688c-0.71783-2.175-1.8943-4.0875-2.625-4.25-0.91604-0.2037-1.0504-0.75035-0.40625-1.7812 0.20539-0.32873 0.48368-0.50166 0.78125-0.53125zm-163.12 1.7188c0.94185-0.03679 2.0355 1.1774 3.0938 1.0625 1.5767-0.10538 2.2822 1.364 3.3125 2.2188 1.5925 0.75751 2.3236-1.3529 3.5312-1.9062 1.4229-0.3904 2.925 0.23975 4.125 1 2.5896 1.863 5.9211 1.7175 8.875 2.5312 1.4468 0.46019 1.567 3.0732-0.1875 3.0938-1.6168 0.03038-2.5434-1.5438-3.9375-2.0938-1.9362-1.0591-4.3262-0.57433-6.2188-1.7188-0.9454-1.477-3.4708 0.56638-2.0312 1.6562 1.5284-0.24021 2.965 0.73922 3.8125 1.9375 2.6082 1.2004 5.5261 1.2306 8.3125 1.6875 2.3717-0.07211 4.0313 1.9659 6.1875 2.5938 0.34559 0.15437 0.78468 0.0769 1.0625 0.375-2.2533 0.21756-4.5185-0.02847-6.75-0.34375-1.6165 0.04428-2.613-1.4301-3.9375-2.0938-2.4364-0.26783-4.8456-0.77687-7.1875-1.5-2.2226-0.33747-3.344-2.6783-5.4688-3.2188-1.778-0.06903-3.6044-0.42852-5.1562-1.3438-1.1223-0.73752-3.0142-1.7527-2.3125-3.375 0.27367-0.38967 0.56105-0.55024 0.875-0.5625zm94.875 0.78125c0.68371-0.17384 1.9157 0.83724 2.6875 2.5312 0.6265 1.375 1.732 2.5 2.4688 2.5s1.3438 0.67499 1.3438 1.5c0 0.825-0.18158 1.5-0.375 1.5-0.84825 0-6.625-6.137-6.625-7.0312 0-0.60366 0.18922-0.92098 0.5-1zm83.5 0.03125c0.08553-0.01001 0.18892-0.00648 0.28125 0 0.94971 0.0667 2.2144 0.98164 2.9062 2.5 0.6265 1.375 1.507 2.5 1.9688 2.5s0.84376 0.67499 0.84375 1.5c0 0.825-0.67499 1.5-1.5 1.5-0.825 0-1.5-0.66315-1.5-1.4688s-0.89999-1.9426-2-2.5312-2-1.7256-2-2.5312c0-0.91676 0.4013-1.3987 1-1.4688zm-87.125 1c0.48585 0 1.1186 0.89999 1.4062 2s0.46102 1.9497 0.375 1.9062-0.71875-0.28509-1.4062-0.5625c-1.416-0.5714-1.7283-3.3438-0.375-3.3438zm-130.91 0.5625c0.74557 0.03072 0.73709 0.71133 0.34375 2.7812-0.71978 3.7878-0.92902 4.0977-1.7812 2.7188-0.36253-0.5865-0.37117-1.5125-0.03125-2.0625s0.14495-1-0.4375-1c-1.8336 0-1.1685-1.7468 0.875-2.2812 0.42875-0.11212 0.78273-0.16649 1.0312-0.15625zm149.09 0.25c0.37461-0.20146 2.0125 1.0389 3.9375 3.0625 2.2 2.3126 4 4.6294 4 5.1562 0 1.3438-0.06759 1.3047-4.25-2.9375-2.0625-2.092-3.75-4.4048-3.75-5.125 0-0.09003 0.00898-0.12747 0.0625-0.15625zm-6.2188 1.2188c0.31688-0.01635 0.77294 0.17919 1.2812 0.6875 0.60271 0.6027 0.91812 1.5498 0.71875 2.0938-0.19977 0.545-0.94304 0.30859-1.6875-0.5-1.0829-1.1762-1.0096-2.2453-0.3125-2.2812zm15.656 0.96875c0.825 0 1.5 0.64845 1.5 1.4688s0.9 2.063 2 2.75 2 1.8073 2 2.5c0 1.9386-1.2414 1.4409-4.25-1.7188-3.0626-3.2163-3.511-5-1.25-5zm-92.094 1.0312c0.74697 0 1.5637 0.49474 1.9375 1.4688 0.39152 1.0203-0.03596 1.5-1.375 1.5-1.0832 0-1.9688-0.67461-1.9688-1.5 0-0.974 0.65928-1.4688 1.4062-1.4688zm5.0938 1.9688c0.83333 0 1.5 0.88889 1.5 2 0 2.346-0.10243 2.3713-1.75 0.5-1.6414-1.8643-1.5775-2.5 0.25-2.5zm115.12 0.28125c1.1233-0.16979 3.375 1.644 3.375 2.9688 0 0.5595 0.72433 1.5602 1.625 2.2188s1.4313 1.8 1.1875 2.5312c-0.51684 1.5505-4.8125-2.5815-4.8125-4.625 0-0.6755-0.56249-1.4107-1.25-1.6562s-0.93044-0.79005-0.53125-1.2188c0.10473-0.11245 0.24578-0.19449 0.40625-0.21875zm-220.75 0.625c0.28354-7e-4 -0.07985 0.38324-1.0625 1.375-1.9065 1.9241-2.8125 2.1738-2.8125 0.71875 0-0.55 0.17623-1 0.40625-1s1.2425-0.33706 2.25-0.71875c0.64341-0.24379 1.0486-0.37458 1.2188-0.375zm110.28 0.5625c1.4755-0.14484 2.064 1.473 1.4062 4.0938-0.33726 1.3437-1.2792 2.4375-2.0938 2.4375-1.9722 0-1.8585-1.0007 0.28125-2.625 1.6667-1.2652 1.6667-1.3135 0-1.3438-2.1262-0.0386-2.3106-1.5963-0.28125-2.375 0.24517-0.09409 0.47672-0.16681 0.6875-0.1875zm74.75 0.46875c0.87895 0.04321 2.1282 0.71868 2.5 1.6875 0.34679 0.9038 0.49506 1.7862 0.34375 1.9375-0.41453 0.4145-3.75-2.2019-3.75-2.9375 0-0.51581 0.37888-0.71342 0.90625-0.6875zm64.594 0.0625c0.825 0 1.5 0.37925 1.5 0.84375s1.1257 2.1519 2.5 3.75 2.4993 3.2918 2.5 3.7812 0.78751 1.488 1.75 2.2188c1.6063 1.2193 1.6069 1.3458 0.0625 1.375-0.92544 0.0175-1.9632-0.86826-2.3125-1.9688s-1.4997-2.4625-2.5625-3.0312-1.9375-1.7082-1.9375-2.5312-0.67499-1.7771-1.5-2.0938c-1.9412-0.7449-1.9412-2.3438 0-2.3438zm15.5 0c0.55 0 1 0.89999 1 2s1.708 3.708 3.8125 5.8125 4.1155 4.5795 4.4688 5.5 0.46541 1.6875 0.25 1.6875c-1.0374 0-8.5312-8.4836-8.5312-9.6562 0-0.7375-0.44999-1.3438-1-1.3438s-0.99999-0.90001-1-2 0.45001-2 1-2zm-149.22 0.15625c0.14504 0.0703 0.17396 0.59189 0.1875 1.5938 0.03135 2.3194 1.4404 3.015 2.5312 1.25 0.80243-1.2983 3.5-1.2983 3.5 0 0 0.55-0.9 0.99999-2 1s-2 0.44999-2 1c0 1.4219-1.2976 1.1546-2.8125-0.5625-0.92332-1.0466-1.0048-1.9766-0.28125-3.2188 0.45214-0.77615 0.72996-1.1328 0.875-1.0625zm-122.5 1.9688c0.51827 0.01011 0.71875 0.66247 0.71875 1.875 0 1.1-0.45 2-1 2s-1 0.45-1 1 1.35 1 3 1 2.5696 0.67213 3 0.8125c29.437 9.6006 76.282 14.405 101 20.188 1.6435 0.38446 5.5287 1.5952 2.25 3.4688-0.06093-0.35359 0.24068-1.0746-2.4062-2.1875s-4.3123-1.5933-4.2188 1.2188c0.19427 5.8398 29.959 13.352 36.375 9.625 1.1863-0.68919 10.72-3.0736 13.562-2.0938 3.1373 1.0816 6.5024 1.2977 9.6562 2.125 50.347 11.058 102.05 15.773 152.59 24.719 2.9911 0.52937 18.196 0.69619 19.469 0.46875 23.404-4.1814 46.417-9.0158 69.719-16.5 4.1792-1.3423 5.7091 16.2 1.5 16.656-9.4395 1.0228-18.108 4.6812-27.594 6.7188-17.184 3.6912-34.857 7.3748-52.406 6.625-37.085-1.5844-73.295-8.4077-109.53-14.938-25.03-4.5104-54.933-5.435-79.969-11.812-28.59-7.2829-59.108-13.274-87.938-22-16.331-4.9431-33.26-9.4846-50.219-12.781-5.6526-1.0988-5.8705-7.4517-0.46875-13.062 2.0359-2.1147 3.2399-3.138 3.9062-3.125zm265.22 0.0625c0.32131-0.07611 0.80738 0.49521 1.1562 1.4062 0.3987 1.0412 1.6202 2.603 2.6875 3.4688s1.7511 2.1218 1.5312 2.7812c-0.26302 0.7891-0.96713 0.52931-2.0625-0.75-2.3678-2.7654-4.0913-6.1898-3.4375-6.8438 0.03833-0.03832 0.0791-0.05163 0.125-0.0625zm-27.062 0.8125c0.79219 0 7.5625 7.246 7.5625 8.0938 0 1.448-0.76261 1.0758-3.7812-1.875-2.5096-2.4532-4.7944-6.2188-3.7812-6.2188zm-106.44 0.53125c0.74016 0 1.4803 0.40969 1.75 1.2188 0.24786 0.7436-0.46111 1.25-1.75 1.25s-1.9979-0.50641-1.75-1.25c0.26969-0.80905 1.0098-1.2188 1.75-1.2188zm5.375 0.9375c0.31581-0.05772 0.68679 0.28417 0.9375 0.9375 0.43761 1.1404 0.00618 1.5937-1.5312 1.5938-1.1744 0-1.7165-0.33751-1.2188-0.75s1.1889-1.1352 1.5312-1.5938c0.08559-0.11465 0.17598-0.16826 0.28125-0.1875zm142 1.5312c0.825 0 1.7851 0.44999 2.125 1s-0.05 0.99999-0.875 1-1.7851-0.45001-2.125-1 0.05-1 0.875-1zm-151.25 0.96875c0.10611-0.00461 0.22085 0.00291 0.34375 0.03125 1.4748 0.00987 1.065 2.0811 0.15625 2.5938-1.8139 0.95186-2.0917-2.5558-0.5-2.625zm18.281 0.96875c0.09108-0.06258 0.2014 0.11782 0.3125 0.5625 0.63844 2.5554 2.0927 3.4497 5.5312 3.4688 1.771 0.0099 2.75 0.56524 2.75 1.5312 0 0.825-0.3375 1.405-0.75 1.3125s-2.4375-0.3467-4.5-0.5625c-3.6104-0.3776-3.7679-0.51019-3.6562-4.0625 0.04299-1.3672 0.1607-2.1457 0.3125-2.25zm12 2.875c3.8379-0.01401 14.14 1.6086 14.812 2.5938 0.49592 0.7269 0.73965 0.68754 0.75-0.15625 0.02221-1.8132 2.7118-1.5473 3.4375 0.34375 0.41637 1.085 1.3244 1.4126 2.8438 1.0312 1.2369-0.3105 2.9296-0.11244 3.75 0.40625 1.0747 0.6795 0.31446 0.92651-2.6875 0.9375-2.3833 0.0088-4.3661 0.56624-4.6562 1.2812-0.36948 0.9106-0.74194 0.94639-1.3438 0.125-0.45437-0.6202-2.6793-1.4612-4.9688-1.8438-3.5306-0.59-4.2564-0.42129-4.6562 1.125-0.25927 1.0027-0.52995 1.2812-0.59375 0.59375-0.07167-0.7723-1.6223-1.25-4.0938-1.25-3.8845 0-5.2872-1.2534-2.75-2.4375 1-0.4666 1-0.68965 0-1.1562-0.6875-0.3209-1.25-0.89386-1.25-1.2812 0-0.20542 0.52059-0.30927 1.4062-0.3125zm-94.312 1.1562c1.2872 0.05182 1.4386 1.5399 1.9062 2.4375 0.77837 1.6639 2.8543 1.2946 4.3438 1.5625 1.1429 0.43101 3.4394 2.5336 3.8438 0.3125 0.165-1.075 0.85561-2.7703 2.2188-2.125 1.7122 1.0506 1.3375 3.3586 2.3125 4.875 0.92021 1.1709 0.74736 3.4408-0.90625 3.8438-2.2147-0.35179-4.186-1.4601-6.1562-2.4688-6.1416-1.6875-12.546-2.0611-18.812-3.0625-0.92343-0.21855-3.1187 0.52011-2.75-1.125 2.9724-0.41166 5.991 0.20577 8.9375-0.46875 2.2698-0.38466 2.8045-3.3732 5.0625-3.7812zm4.4062 0.03125c1.7584-0.18094 1.865 2.9122 0.25 3.125-1.7661 0.18207-2.0234-3.0289-0.25-3.125zm171.25 0c0.11563-0.00857 0.23679-0.01087 0.34375 0 0.51342 0.05216 0.90626 0.32626 0.90625 0.875 0 0.4905 2.1375 1.3305 4.75 1.875 4.8171 1.004 3.1544 1.1905-4.4688 0.5-3.1587-0.2862-4.0423-0.72511-3.625-1.8125 0.32794-0.8546 1.2843-1.3775 2.0938-1.4375zm-187.91 0.03125c0.07724-0.00663 0.16272-0.01037 0.25 0 1.4905 0.24337 1.0584 3.1838-0.53125 2.5625-0.91664-0.55217-0.87738-2.463 0.28125-2.5625zm246.06 0.5c1.748 0.04527 4.4012 1.6052 5.75 1.9062 5.6461 0.43313 11.23 1.6216 16.594 3.4375 9.7314 0.63817 19.502 0.62559 29.25 0.625 8.1189-0.05665 16.235 0.1266 24.344 0.3125 3.7171 0.34279-0.72765 2.2806-2.1562 2.5312-5.7451 1.4848-10.697 0.69231-16.844 1.75-9.9992 1.7206-21.076 0.97471-31.562 0.03125-6.8245-0.94731-13.868-1.1662-20.406-3.5312-2.4018-1.2446-5.5914-2.1493-6.625-4.9375-0.09712-1.6494 0.60746-2.1522 1.6562-2.125zm-42.906 2.4688c1.1111 0 2 0.66669 2 1.5s-0.88888 1.5-2 1.5-2-0.66671-2-1.5 0.8889-1.5 2-1.5zm-65.688 0.125c1.1058-0.04755 1.6875 0.36916 1.6875 1.2812 0 1.021-0.91325 1.5937-2.5938 1.5938-3.1327 0-2.7952-2.3727 0.40625-2.8438 0.18028-0.02652 0.34203-0.02446 0.5-0.03125zm-109.41 0.09375c1.3353 0.69757 3.1951-0.07967 4.2812 1.1875 0.98667 1.4361-1.1782 3.2889-2.5312 2.375-1.5534-0.19644-2.6403-2.2035-1.75-3.5625zm115.09 0.78125c1.1 0 2 0.44999 2 1s-0.9 0.99999-2 1-2-0.45001-2-1 0.9-1 2-1zm266.62 1.875c3.109 0.09917 7.934 6.1002 7.6562 9.75 1.1596 7.9069 3.2706 15.777 3.625 23.75-2.7144 6.898-1.8411 14.447-2.5312 21.781-0.27687 9.6951-2.432 19.085-4.75 28.438-2.6603 6.8943-6.0099 13.705-10.531 19.625-4.3459 4.4302-12.732 2.6614-14.062-3.6875-2.4191-5.4554 1.0727-1.719 2.5938 0.53125 7.0964-3.0079 13.384-9.5405 14.844-17.531 2.1497-6.6598 3.7715-13.57 6.3125-20.125 0.953-11.749 0.94928-23.542 0.46875-35.312 1.4399-2.5835-2.1946-15.592-2.5-8.5625-4.9496-3.3648 0.86205-12.676-3.4062-16.469 0.4-1.5833 1.2449-2.2206 2.2812-2.1875zm-186.12 0.125c0.825 0 1.5 0.44999 1.5 1s-0.67499 0.99999-1.5 1c-0.825 0-1.5-0.45001-1.5-1s0.67501-1 1.5-1zm-65.219 0.125c0.53358 0 0.71875 0.28814 0.71875 0.875 0 0.55-1.2375 0.94495-2.75 0.90625-2.4368-0.0623-2.5222-0.14466-0.75-0.90625 1.3657-0.58685 2.2477-0.875 2.7812-0.875zm69.031 0.59375c0.26578-0.01681 0.55128-0.00736 0.875 0 0.43163 0.00981 0.90974 0.03578 1.4062 0.09375 1.9861 0.2318 3.2236 0.71091 2.75 1.0625s-1.1812 1.0334-1.5938 1.5312c-0.42192 0.5092-0.74999 0.4063-0.75-0.25 0-0.6417-0.89999-1.1563-2-1.1562s-2-0.37289-2-0.8125c0-0.24721 0.51517-0.41831 1.3125-0.46875zm-64.094 0.28125c0.23204-0.01532 0.50671 0 0.78125 0 2 0 3 0.49999 3 1.5 0 0.8333-0.88889 1.5-2 1.5-1.1 0-2.0228-0.56251-2.0312-1.25-0.01021-0.8333-0.3225-0.75001-0.96875 0.25-0.82843 1.2819-0.98691 1.2456-1-0.25-0.00981-1.121 0.5945-1.6428 2.2188-1.75zm276.78 0.53125c0.20967-0.03512 0.44826-0.01105 0.6875 0.03125 2.6483 3.7075 6.0553 6.8236 8.3125 10.812 1.09 3.9763 4.3045 6.7992 6.6875 10 1.0548 3.024 3.3268 5.356 5.2812 7.8125 0.87177 2.9666 3.3848 5.0566 4.5 7.9062 0.35012 2.6792 2.4823 4.5832 3.5312 6.9688-0.20151 0.22356-0.43573 0.41604-0.71875 0.53125-2.0593 0.23906-2.7675-2.3956-3.4062-3.9062-4.049-7.6061-8.85-14.825-14.531-21.312-3.5528-3.5616-5.3531-8.4354-8.6562-12.188-0.80786-1.3773-2.6458-1.5781-3.2188-3.0938-0.62521-1.3374 0.06353-3.3166 1.5312-3.5625zm-299.03 0.21875c0.69934-0.00409 1.5518 0.03275 2.5312 0.09375 3.0258 0.1884 5.5 0.7509 5.5 1.25s1.095 0.90624 2.4375 0.90625 2.7226 0.44999 3.0625 1c0.57652 0.9328-4.643 1.4857-5.5938 0.59375-0.33835-0.3175-7.0505-1.352-10.156-1.5625-0.4125-0.0279-0.74925-0.59376-0.75-1.2812-7.3e-4 -0.66757 0.87073-0.98772 2.9688-1zm-88.469 0.25c1.3416-0.26351 1.4362 1.6217 2.5625 1.875 3.1547 0.13514 6.3147 0.51694 9.3438 1.4375 1.3332 0.56302 3.0591 0.5436 4 1.7812 0.92245 2.0472-2.2274 1.8761-3.3438 1.1875-1.9157 0.2348-2.9837-1.813-4.7188-2.1875-2.4307-0.16842-4.8761-0.34419-7.25-0.9375-1.8296 0.29294-2.6108-3.0307-0.59375-3.1562zm119.5 0c1.1 0 2 0.44999 2 1s1.575 0.99999 3.5 1c1.925 0 3.5 0.44999 3.5 1s-0.89999 0.99999-2 1c-1.1111 0-2 0.66669-2 1.5 0 2.442-18.448 1.3726-19.406-1.125-0.50591-1.3183 0.65475-1.463 8.6562-1.0312 5.086 0.2745 8.0125 0.26979 6.5 0-3.1473-0.5614-3.7719-3.3438-0.75-3.3438zm76.156 1.1875c0.80645-0.0576 1.6785 0.11376 2.4375 0.5625 11.73 3.212 23.916 4.3541 36.031 4.9062 4.2358 0.00164 8.5307 0.69164 12.719-0.1875 1.9376-0.55032 4.9549-2.0737 6.4062-0.03125-2.3273 0.5395-4.444 3.1916-4.4062 5.9375-1.18 2.8998 3.1134 2.654 3.625 0.40625-0.86841-1.5705 1.6958-5.5485 2.7188-2.5938-0.26039 3.6489-3.1321 6.5274-6.25 8.0938-3.3576 2.5002-7.8707 0.82466-11.438 2.7188-2.1208 1.4768-5.2016 1.4664-7.2812-0.09375-8.9825-1.837-18.228-2.1138-27.125-4.4062-2.4581-0.83102-5.2833-1.1435-7.3125-2.875-2.2565-2.3431-1.9736-5.8138-2.7188-8.75-0.66208-2.2548 0.81956-3.5608 2.5938-3.6875zm-64.25 2.2812c0.8571-0.02483 2.2808 0.0088 4.0625 0.09375 3.5633 0.1698 6.6488 0.78999 6.8438 1.375 0.49242 1.4773 3.9133 1.3355 4.5312-0.1875 0.36925-0.91 0.71105-0.94531 1.3125-0.125 0.45437 0.6197 6.3563 1.7174 13.094 2.4375s12.25 1.6774 12.25 2.125 1.1896 0.81249 2.6562 0.8125 2.4792 0.14615 2.25 0.34375c-1.8518 1.5969-20.729 0.33496-21.938-1.4688-0.5638-0.8413-3.5639-1.3071-16.219-2.4375-4.2625-0.3807-7.75-1.055-7.75-1.5s-0.78749-1.0048-1.75-1.25c-0.48125-0.12255-0.20085-0.19392 0.65625-0.21875zm-3 3.8125c0.69529-0.0283 1.5753-0.0253 2.6562 0 3.7182 0.0871 5.4375 0.52124 5.4375 1.4062 0 1.8872-9.6161 1.7711-10.344-0.125-0.32532-0.8478 0.16413-1.1963 2.25-1.2812zm11.094 0.71875c0.55 0 1 0.67499 1 1.5 0 0.825-0.44999 1.5-1 1.5s-0.99999-0.67501-1-1.5 0.45001-1.5 1-1.5zm4.0938 0c0.49115 0 0.90626 0.89999 0.90625 2 0 1.9492-1.0775 2.61-2.2812 1.4062-0.80112-0.8011 0.25097-3.4063 1.375-3.4062zm-244.53 1.4062c-0.87355 0.10592-1.3921 0.77642-1.125 2.3125 5.7315 2.8946 9.0907 8.9358 14.938 11.656 3.8057 2.6492 8.5325 3.0143 12.938 3.9688 5.1644 2.725 11.036 3.54 16.781 4.1562 7.1034 1.8148 14.145 4.6089 21.594 4.5938 3.8418 2.2052 7.9604 4.0087 12.312 4.9062 1.6307 1.1211 4.0738 2.0194 5.9062 0.84375 3.1209-3.5603-2.5969-6.2727-5.6562-6.3438-4.5036 0.01016-8.1717-2.8745-12.156-4.5312-4.6889-0.51537-9.5085-0.57321-14.156-1.625-4.261-1.3211-8.9691-1.5917-12.781-4.0938-1.8386-3.5239-5.927-5.3746-9.9062-4.1875-3.4514-1.7805-7.3781-4.6748-11.406-2.8438-4.5342 0.44699-8.2494-2.7333-11.5-5.4375-0.71462-1.3854-3.5422-3.289-5.375-3.375-0.13746-0.00645-0.28146-0.01513-0.40625 0zm445.22 1.2188c0.89144-0.11916 1.9173 0.45558 3.0938 2.0938 3.8461 4.9941-0.05802 10.581-2.1875 15.312-1.3211 5.4001-2.7432 10.83-4.2812 16.219-3.9733 2.4779-3.6578-5.3305-3.3438-8-2.2737-4.8375-3.6899 3.9458-3.625 6.1562-0.97498 2.044 0.30664 4.8336-1.4375 6.5625-4.7252-0.42565-0.01808-7.4736 0.375-10.5-0.48773-7.369 3.1923-14.077 6.6562-20.312 1.0464-2.4816 2.4719-7.2267 4.75-7.5312zm-269.94 0.375c2.2425-0.00545 5.2814 0.89501 6.9062 0.84375 13.509 1.685 32.298 7.4363 44.125 3.9062 14.058-1.6788 26.209 1.8706 39.875 3.2188 7.4121 0.25278 14.44 2.6007 21.406 4.9375 6.1567 1.1821 1.2556 7.8934-3.2188 6.375-4.634-1.7013-10.372-4.2607-14.938-0.78125-1.778 2.6722-5.2709 0.71722-7.7188 0.4375-5.2866-0.71258 0.85417-2.8667 3.0938-2.2812-14.504-5.8438-59.182-9.0355-92.312-14.062-0.23461-2.036 1.0371-2.5895 2.7812-2.5938zm241.16 0c0.55 0 1 1.8 1 4s-0.42574 4-0.9375 4-1.131 0.78749-1.375 1.75-0.29344 0.17499-0.09375-1.75c0.19967-1.925 0.36894-4.5125 0.375-5.75s0.48126-2.25 1.0312-2.25zm-296 1c1.0051 0.22479 1.3315 1.608 0.75 2.375-1.5266 1.4133-2.6954-2.3985-0.75-2.375zm141.5 0c1.925 0 3.5 0.44999 3.5 1s1.35 0.99999 3 1 3 0.44999 3 1c0 1.0049-0.64691 1.1345-2.5 0.5-0.55-0.1883-3.1375-0.64801-5.75-1-5.5126-0.7427-6.3938-2.5-1.25-2.5zm16.844 2.5312c1.5426 0.03093 4.6563 1.8829 4.6562 3.125 0 0.7367-0.11249 1.2826-0.25 1.2188s-1.15-0.35009-2.25-0.625c-2.1995-0.5495-3.6398-2.2507-2.9062-3.4375 0.13386-0.2166 0.39402-0.28839 0.75-0.28125zm-97.719 3.4688c0.825 0 1.2149 0.44999 0.875 1s-1.3 0.99999-2.125 1-1.2149-0.45001-0.875-1 1.3-1 2.125-1zm-140.97 0.5c0.27991-0.01542 0.59755-0.00584 0.9375 0 2.2663 0.03895 5.6054 0.51256 6.3125 1.125 0.22916 0.1984-1.4283 0.37499-3.6875 0.375s-4.4021-0.46824-4.75-1.0312c-0.16277-0.26336 0.34776-0.4225 1.1875-0.46875zm146.34 0.5c0.55 0 1 0.67499 1 1.5 0 0.825-0.45 1.5-1 1.5s-1-0.67501-1-1.5 0.45-1.5 1-1.5zm170.75 0.09375c1.3849-0.0714 2.25 0.48304 2.25 1.4062 0 0.825-0.22499 1.5-0.5 1.5s-0.49999-0.42779-0.5-0.9375-0.78749-1.1234-1.75-1.375c-1.3169-0.3441-1.1932-0.50646 0.5-0.59375zm95.219 2.9062c0.75226-0.02224 1.3674 0.72567 1.6562 1.375 1.271 3.3058 1.4618 6.9878 0.71875 10.438-0.24687 1.2268-1.5466 1.7077-2.4688 2.3438-0.98294 0.57016-1.2643 1.7291-1.7812 2.6562-0.31931 0.68005-0.99161 0.99999-1.6875 1.1562-0.70474 0.17898-1.518 0.68892-1.4062 1.5312v0.15625c0.07133 0.77199-1.0078 1.9167-1.5312 0.90625-0.56521-1.6966-0.38477-3.5274-0.25-5.2812 0.3194-2.6881 0.65931-5.4448 1.7812-7.9375 0.3423-1.0706 1.7578-1.3758 1.9375-2.5312-0.03432-1.9008 0.97163-3.902 2.7188-4.75 0.1127-0.03647 0.20503-0.05932 0.3125-0.0625zm-243.84 0.21875c0.60434 0.00669 0.875 0.52346 0.875 1.6562 0 1.4403-0.63281 2.125-2 2.125-1.1111 0-2-0.66671-2-1.5 0-0.825 0.17624-1.5 0.40625-1.5s1.13-0.29109 2-0.625c0.28349-0.10877 0.5173-0.15848 0.71875-0.15625zm68.406 7.7812c0.70381-0.05026 0.4219 0.2471-0.6875 1.1562-0.89923 0.7369-1.8949 2.0187-2.2188 2.8438-0.32383 0.825-0.46681 0.36939-0.34375-1 0.14423-1.6048 0.9296-2.6181 2.2188-2.8438 0.45237-0.07917 0.79665-0.1395 1.0312-0.15625zm-18.406 1.5625c0.24843 0.00453 0.55004 0.04 0.875 0.125 1.1 0.2876 2 0.92046 2 1.4062s-0.89999 0.90624-2 0.90625-2-0.63276-2-1.4062c0-0.6855 0.37971-1.0448 1.125-1.0312zm27.594 0.46875c0.3337-0.00898 0.63586 0.01785 0.90625 0.09375 6.7782 0.25696 13.548 0.9242 20.188 2.3438 8.1648 2.5491 16.779 3.0542 25.281 3.0938 4.1471 0.46622 8.4643-0.41694 12.5 0.90625-4.6585 0.62055-9.3783 0.74253-14.062 1.0625-3.8534 0.80443-8.2339-0.1837-11.625 2.25 3.1668-0.43448 6.3426-0.85527 9.5312-1.0938 2.2335 0.55927 5.2905-1.444 6.9375 0.5625-2.855 1.013-6.0472 0.22201-8.8438 1.4688-1.8986 0.96328-4.2296 0.45748-6.3125 0.75-6.3584 0.37284-12.738 0.18285-19.094 0.28125-3.546 0.3486-4.53-3.4422-7.1562-4.7188 1.7342-1.3799 5.8466-1.0548 7.875 0.5 0.59688 3.0994 4.0927 2.7911 5.9375 0.84375 3.9728-2.0317-0.54155-5.531-3.4062-4.6562-4.6516-0.6486-9.6364 1.0988-14.031-1.125-3.0468-1.6364-5.7802 1.5325-8.8125 1.5-1.6015-1.9854 1.8516-3.9996 4.1875-4.0625zm65.562 3.4062c0.4417-0.01964 0.84381 0.05663 1.1562 0.28125 2.377 1.0709-1.5983 1.9393-2.4062 2.0312-3.1054-0.26362-0.66402-2.2274 1.25-2.3125zm105.19 0.3125c0.07121-0.01535 0.14417-0.00595 0.21875 0 0.27538 0.02196 0.59735 0.17683 0.90625 0.5625 0.54242 3.373 0.34493 6.8179 0.40625 10.219-0.00735 2.1271-0.02841 4.2487-0.09375 6.375-0.27704 1.5981 0.27668 3.4271-0.5625 4.8438-0.48259-2.2485-0.26431-4.5341-0.40625-6.8125 0.43757-1.5633-1.3105-3.8936-2.7188-2.125-2.6789 2.3205-5.378 4.694-8.625 6.1875-1.3954 1.0975-2.7716-0.48219-1.2188-1.5938 1.2784-1.9151 3.5652-2.3078 5.625-2.6562 1.617-0.9172 1.0118-3.3438 2.6875-4.4062 1.8422-1.7395 2.3594-4.3459 2.3438-6.7812-0.30005-1.0657 0.36939-3.5823 1.4375-3.8125zm-140.91 3.3125c-0.15149 6.6e-4 -0.32009 0.03516-0.46875 0.0625-1.7591 1.5698 3.8386 0.31529 0.90625 0-0.14823-0.03319-0.28601-0.06316-0.4375-0.0625zm159.44 3.9375c0.55 0 1 0.89999 1 2s-0.44999 2-1 2-0.99999-0.90001-1-2 0.45001-2 1-2zm-319.19 0.6875c0.20656 0.01698 0.40609 0.09413 0.59375 0.1875 0.91264 0.64135 1.7963 1.4861 2.9688 1.4688 4.4264-0.06908 8.8848-0.419 13.25 0.21875 1.0204-0.03563 2.8719 0.53154 2.2188 2.125-2.0475 0.83039-4.1934 0.71658-6.2812 0.84375-1.1718 0.03838-1.7316-1.3575-2.8125-1.5625-1.3739 0.05996-1.5582 2.1346-1.4062 3.3125-0.52275 1.2224 0.97575 1.3065 1.1562 0.21875 0.41815-1.5026 2.6144-0.07457 1.7812 1.1875 0.03263 1.3852 0.35184 2.7108 0.625 4.0312 0.11577 1.3059 0.65706 2.5617 0.375 3.9062-0.90854 1.31-1.9065-1.4591-3.125-0.78125-1.5746-0.32375-3.1789-0.41142-4.7812-0.5625-1.0711-0.16326-2.4938 0.11422-3.0312-1.2188-0.34129-1.408-1.2108-2.3862-2.0938-3.3438-1.1329-2.282-1.566-4.9731-2.1562-7.5312-0.52318-1.1425 0.63119-2.5211 1.6562-2.4688 0.14644 0.00747 0.3015 0.02293 0.4375 0.09375 0.20487-0.09879 0.41844-0.14198 0.625-0.125zm-8.2188 0.40625c1.6631 0.03112 1.3971 3.2316 0.65625 4.4688-1.07 3.1763-1.6582 7.2007 0.75 9.9375 0.30178 1.6425 0.12805 4.3632-2.0938 4.4375-15.617-1.1409-30.914-7.6766-46.531-9.5312-2.7782-0.91744 0.77934-3.1776 2.1875-2 2.7596-0.07451 5.4804 0.84605 7.8125 2.2812 10.15 2.1864 25.153 7.0372 34.969 5.1562 1.3282-4.7961-0.24577-10.029 1.4062-14.562 0.3203-0.1394 0.60617-0.19195 0.84375-0.1875zm34.5 3.9062c0.32804-0.01737 0.66246-0.02069 1 0 11.891 0.63819 27.351 0.41845 36.344 8.4062 6.7896 6.0307 14.107 5.2555 21.125 8.9688 8.6442 4.5736 9.959-7.9071 16.812-6.4062 22.376 4.9001 56.776 9.7037 80.281 9.75 4.9111 0.00968 10.529-0.73178 15.875-1.6562 7.6943 1.1826 1.6277 1.2751-2.9062 5.4062-4.8026 4.376-9.6013 9.591-15.812 10.469-32.893 4.6485-67.841-5.1929-100.25-12.656-14.648-3.3733-35.436-14.934-51.375-9.375-16.594 5.7878-11.263-12.368-1.0938-12.906zm291.34 2.8438c0.0189-0.01585 0.042-0.01179 0.0625 0 0.05466 0.03145 0.12462 0.16562 0.1875 0.40625 0.25152 0.9625 0.25153 2.5375 0 3.5s-0.46873 0.17499-0.46875-1.75c0-1.2633 0.08645-2.0453 0.21875-2.1562zm-290.34 0.40625c-0.93488 0.06002-1.0938 0.58143-1.0938 1.75 0 1.8697 0.39629 2.0126 3.75 1.4062 5.9128-1.069 5.9128-1.7435 0-2.8125-1.2576-0.2274-2.0953-0.37976-2.6562-0.34375zm251.25 1.375c0.01718-0.01191 0.04401-0.00967 0.0625 0 0.08873 0.04643 0.17842 0.3383 0.3125 0.875 0.27483 1.1 1.0038 2.2967 1.625 2.6875 0.78578 0.4944 0.63411 1.1029-0.5 2-0.89655 0.7092-1.9056 1.9875-2.25 2.8125-0.34437 0.825-0.3986 0.37499-0.125-1 0.27359-1.375 0.5537-3.85 0.625-5.5 0.05074-1.174 0.12972-1.7916 0.25-1.875zm-273.09 1.625c-0.08573 0.01651-0.17127 0.07806-0.25 0.125-1.2311 0.90841-0.10592 2.7589 1 2.7812 1.0547 0.21283 2.7537 0.0501 3-1.5312-0.83429-1.1158-2.2175-1.3513-3.4688-1.375-0.0836-0.01752-0.19552-0.01651-0.28125 0zm234.34 1.7812c0.5971-0.0678 1.1603 0.39214 1.3438 0.9375 0.41599 1.6639-2.1551 2.8572-3.2188 1.5625-0.49106-1.1745 0.63377-2.602 1.875-2.5zm-216.34 1.9688c-1.2375-0.0084-2.25 0.44999-2.25 1 0 1.2529 1.0612 1.2529 3 0 1.213-0.7839 1.0694-0.9876-0.75-1zm208.88 1.4062c0.02206-0.00858 0.04169-0.00236 0.0625 0 0.12485 0.01416 0.22752 0.24346 0.0625 0.3125-1.2869-0.00802-2.0764 1.1395-3.0625 1.7812-3.227 1.1176-6.677 1.2735-10.031 1.75-1.2075-0.09528-2.428 0.74692-3.5938 0.125 2.4314-0.69509 4.9518-1.3181 7.0938-2.7188 3.0742-0.80218 6.2463-1.0089 9.4062-1.1875 0.01596-0.03053 0.04044-0.05392 0.0625-0.0625zm6.2188 0.6875c0.47483 0.17723 0.6935 0.71372 0.71875 1.1875 0.0195 1.3277-1.6316 1.6654-2 2.8125-0.25611 2.0891-2.8062 3.3034-4.6562 2.4375-1.3374-0.25602-1.4442-2.5607 0.03125-2.5938 2.4692-0.39367 3.7025-2.9256 5.9062-3.8438zm39.375 2.9062c0.55203 0 1.0786 2.9188 1.1562 6.5s-0.09338 6.5-0.375 6.5-0.5252-1.2375-0.53125-2.75-0.28408-4.4375-0.625-6.5c-0.372-2.2506-0.22632-3.75 0.375-3.75zm-53.719 3.0625c0.33673 0.1941 1.1329-0.29259 1.0938 0.34375-0.36425 1.0748-1.7817 0.88318-2.6562 1.2812-0.8921 0.31271-2.2013 0.5245-2.75-0.46875 1.2491-0.87382 2.8152-1.1434 4.3125-1.1562zm30.562 13.062c0.05306-0.06059 0.09188 0.30859 0.15625 1.125 0.206 2.6125 0.20601 6.8875 0 9.5s-0.37499 0.47499-0.375-4.75c0-3.5922 0.10202-5.7417 0.21875-5.875zm40.062 1.2812c0.25018 0.06251 0.33648 0.80237 0.34375 2.3438 0.00842 1.7875-0.41874 3.25-0.96875 3.25-1.2702 0-1.2702-3.0345 0-5 0.27585-0.42683 0.47489-0.63126 0.625-0.59375zm-38.625 14.594c0.55 0 1 2.025 1 4.5s-0.44999 4.5-1 4.5-0.99999-2.025-1-4.5c0-2.475 0.45001-4.5 1-4.5zm1.4062 11.625c0.28281 0.01073 0.73309 2.1172 1.0938 5.125 0.41218 3.4375 1.146 6.25 1.625 6.25s0.87501 0.90002 0.875 2-0.40594 2-0.90625 2c-1.0492 0-3.5137-13.355-2.8125-15.25 0.03216-0.0869 0.0846-0.12653 0.125-0.125z"/>
</svg>
